<?xml version="1.0" encoding="UTF-8"?>
<svg version="1.1" xmlns="http://www.w3.org/2000/svg" width="1800" height="1800">
<path d="M0 0 C0.83084535 -0.00384115 1.6616907 -0.00768229 2.51771319 -0.01163983 C3.42528632 -0.01077335 4.33285945 -0.00990687 5.2679348 -0.00901413 C6.2361823 -0.01198525 7.20442981 -0.01495637 8.20201814 -0.01801753 C11.45531213 -0.02670791 14.70856933 -0.02821308 17.96187401 -0.02970505 C20.29103741 -0.03433304 22.62020005 -0.03935767 24.9493618 -0.04475021 C31.2843048 -0.0578794 37.6192372 -0.06432037 43.95419168 -0.06876087 C47.91221224 -0.0716912 51.87022989 -0.07579596 55.82824898 -0.08026505 C66.79324842 -0.092375 77.75824534 -0.10275628 88.72325134 -0.10614014 C89.42488672 -0.1063597 90.12652209 -0.10657927 90.84941914 -0.10680549 C91.55270977 -0.10702377 92.2560004 -0.10724204 92.98060286 -0.10746694 C94.40567501 -0.1079104 95.83074717 -0.10835696 97.25581932 -0.10880661 C98.31614113 -0.10913875 98.31614113 -0.10913875 99.39788358 -0.10947761 C110.84312145 -0.11342273 122.28829553 -0.13086799 133.73350878 -0.15416613 C145.49259528 -0.17790931 157.25164982 -0.19034338 169.01076066 -0.19150805 C175.60959066 -0.19255581 182.20833073 -0.19845724 188.80713844 -0.21632767 C195.01726032 -0.23281785 201.22722478 -0.23495912 207.43736076 -0.22618866 C209.71332407 -0.22541876 211.98929587 -0.22975478 214.26523781 -0.23964691 C217.37960446 -0.25238627 220.49341525 -0.24647845 223.60777855 -0.23606491 C224.50196735 -0.24412132 225.39615615 -0.25217772 226.31744158 -0.26047826 C238.32088332 -0.16703281 249.2950207 4.3545454 258.1938076 12.40877151 C267.50504179 22.27957507 270.97191637 33.47581634 270.9592495 46.70080948 C270.96370618 48.15446237 270.96370618 48.15446237 270.9682529 49.63748199 C270.97693058 52.88766991 270.97844737 56.13782097 270.97994041 59.38801956 C270.98456926 61.71733046 270.98959401 64.0466406 270.99498558 66.37594986 C271.00810549 72.70670155 271.01455379 79.03744263 271.01899624 85.36820579 C271.02192772 89.3240541 271.02603268 93.27989952 271.03050041 97.23574638 C271.04260807 108.19649721 271.05299043 119.15724551 271.0563755 130.11800289 C271.05659507 130.81910314 271.05681464 131.5202034 271.05704086 132.24254911 C271.05725913 132.94529164 271.05747741 133.64803417 271.0577023 134.37207192 C271.05814576 135.79600759 271.05859233 137.21994327 271.05904198 138.64387894 C271.05926341 139.35019464 271.05948484 140.05651034 271.05971298 140.78422955 C271.06365898 152.22293732 271.08110796 163.66158131 271.1044015 175.10026445 C271.12814438 186.85486256 271.1405787 198.6094287 271.14174342 210.36405116 C271.14279109 216.95951282 271.14869096 223.5548845 271.16656303 230.15032387 C271.18305272 236.35635515 271.18519473 242.56222891 271.17642403 248.76827431 C271.17565413 251.04262591 271.17999006 253.31698601 271.18988228 255.59131622 C271.20262168 258.70343997 271.19671384 261.81500745 271.18630028 264.92712784 C271.19838488 266.26738786 271.19838488 266.26738786 271.21071362 267.63472384 C271.11071594 280.47046797 265.7766726 291.96997493 256.8188076 301.13142776 C242.94432053 312.99776539 228.00528592 312.71701543 210.7016201 312.64900589 C208.3759931 312.65443365 206.05036954 312.66155997 203.72475243 312.67024612 C197.43963928 312.68840434 191.15479024 312.68144286 184.86967278 312.66872978 C178.94445127 312.65959561 173.01926162 312.66658742 167.0940392 312.67243856 C154.64377321 312.68381531 142.19362547 312.67077649 129.74337888 312.6492371 C119.08551992 312.63136872 108.42783529 312.63447365 97.76997948 312.65291214 C85.36098619 312.67437044 72.95209626 312.68271694 60.54308701 312.67046309 C53.98620866 312.66424495 47.4294501 312.66334628 40.87257957 312.67660904 C34.70657788 312.68821124 28.54090359 312.68006183 22.37493706 312.65703201 C20.11958674 312.65176827 17.8642086 312.65321839 15.60886955 312.66208267 C-1.06781981 312.721557 -15.31364195 312.11709002 -28.1811924 300.13142776 C-37.50400189 289.49024118 -41.33497064 279.48601037 -41.32163429 265.56204605 C-41.32460541 264.59294412 -41.32757654 263.6238422 -41.33063769 262.62537354 C-41.33931538 259.37518562 -41.34083216 256.12503456 -41.34232521 252.87483597 C-41.34695405 250.54552507 -41.3519788 248.21621493 -41.35737038 245.88690567 C-41.37049028 239.55615398 -41.37693858 233.2254129 -41.38138103 226.89464974 C-41.38431251 222.93880143 -41.38841747 218.98295601 -41.39288521 215.02710915 C-41.40499286 204.06635832 -41.41537523 193.10561002 -41.4187603 182.14485264 C-41.41897987 181.44375239 -41.41919943 180.74265213 -41.41942565 180.02030642 C-41.41964393 179.31756389 -41.41986221 178.61482136 -41.4200871 177.89078361 C-41.42053056 176.46684794 -41.42097712 175.04291226 -41.42142677 173.61897659 C-41.4216482 172.91266089 -41.42186963 172.20634519 -41.42209777 171.47862598 C-41.42604378 160.03991821 -41.44349275 148.60127422 -41.4667863 137.16259108 C-41.49052918 125.40799297 -41.5029635 113.65342683 -41.50412822 101.89880437 C-41.50517589 95.30334271 -41.51107576 88.70797103 -41.52894783 82.11253166 C-41.54543751 75.90650038 -41.54757953 69.70062662 -41.53880882 63.49458122 C-41.53803893 61.22022962 -41.54237486 58.94586952 -41.55226707 56.67153931 C-41.56500647 53.55941556 -41.55909863 50.44784808 -41.54868507 47.33572769 C-41.55674148 46.44222101 -41.56479788 45.54871433 -41.57309842 44.62813169 C-41.4796533 32.63347753 -36.96179905 21.64092285 -28.8999424 12.75642776 C-21.37867814 5.64541428 -10.51591565 0.01830613 0 0 Z " fill="#F4F4EB" transform="translate(200.1811923980713,743.8685722351074)"/>
<path d="M0 0 C1.5631897 0.00785522 1.5631897 0.00785522 3.15795898 0.01586914 C4.28266602 0.0190918 5.40737305 0.02231445 6.56616211 0.02563477 C7.75016602 0.03401367 8.93416992 0.04239258 10.15405273 0.05102539 C11.34192383 0.05553711 12.52979492 0.06004883 13.75366211 0.06469727 C16.69967741 0.07652865 19.6455824 0.09385016 22.59155273 0.11352539 C26.86954188 9.08531947 30.50272874 18.28890607 34.12844276 27.53667068 C35.61227067 31.32101015 37.10271055 35.10273577 38.59265041 38.88467216 C39.38274097 40.8903415 40.17250887 42.89613795 40.96196842 44.90205574 C45.35309009 56.05726694 49.7771253 67.19935824 54.20483398 78.34008789 C54.60348537 79.3432177 55.00213676 80.3463475 55.4128685 81.37987518 C57.42887888 86.45242399 59.44542922 91.52475776 61.46240234 96.59692383 C63.11448746 100.75178347 64.76545038 104.90708657 66.41552734 109.06274414 C68.4564902 114.20282622 70.49922995 119.34219866 72.54326439 124.48106003 C73.30812662 126.40480729 74.07238512 128.32879473 74.83599281 130.25304031 C75.8925312 132.91506456 76.95136467 135.57616512 78.01074219 138.23706055 C78.31563065 139.00676682 78.6205191 139.77647308 78.93464661 140.56950378 C81.02503803 145.81057322 83.2668117 150.97228205 85.59155273 156.11352539 C86.27258057 156.13334473 86.9536084 156.15316406 87.65527344 156.17358398 C90.7385919 156.26879522 93.82122922 156.37849005 96.90405273 156.48852539 C98.51183594 156.53493164 98.51183594 156.53493164 100.15209961 156.58227539 C101.69414063 156.6402832 101.69414063 156.6402832 103.26733398 156.69946289 C104.21519775 156.73088379 105.16306152 156.76230469 106.13964844 156.79467773 C108.59155273 157.11352539 108.59155273 157.11352539 111.59155273 159.11352539 C112.58155273 158.45352539 113.57155273 157.79352539 114.59155273 157.11352539 C116.85986328 156.79467773 116.85986328 156.79467773 119.47827148 156.69946289 C120.41606445 156.66079102 121.35385742 156.62211914 122.32006836 156.58227539 C123.78476562 156.53586914 123.78476562 156.53586914 125.27905273 156.48852539 C126.26711914 156.44985352 127.25518555 156.41118164 128.27319336 156.37133789 C130.7124598 156.27706672 133.15171869 156.19146321 135.59155273 156.11352539 C142.4787595 141.25336397 149.00264761 126.25331126 155.42997742 111.19070435 C155.76044571 110.41628998 156.090914 109.64187561 156.43139648 108.84399414 C156.93501457 107.6636409 156.93501457 107.6636409 157.44880676 106.45944214 C159.94034598 100.6250789 162.45058325 94.79898262 164.97045898 88.97680664 C165.34521866 88.1108638 165.71997833 87.24492096 166.10609436 86.35273743 C166.87735297 84.57090218 167.64865987 82.78908784 168.42001343 81.0072937 C174.28083637 67.46873012 180.1106231 53.91761717 185.88061523 40.34008789 C186.14509209 39.71793962 186.40956894 39.09579136 186.68206024 38.45479012 C189.55604077 31.69405248 192.42611223 24.931686 195.29077148 18.16699219 C196.23732928 15.93690623 197.18394111 13.70684321 198.13061523 11.47680664 C198.78702499 9.92233322 198.78702499 9.92233322 199.45669556 8.3364563 C199.85649628 7.39575287 200.256297 6.45504944 200.66821289 5.48583984 C201.01727692 4.66146927 201.36634094 3.83709869 201.72598267 2.98774719 C202.59155273 1.11352539 202.59155273 1.11352539 203.59155273 0.11352539 C205.44524885 0.02614894 207.30222814 0.00654386 209.15795898 0.01586914 C210.28266602 0.0190918 211.40737305 0.02231445 212.56616211 0.02563477 C213.75016602 0.03401367 214.93416992 0.04239258 216.15405273 0.05102539 C217.34192383 0.05553711 218.52979492 0.06004883 219.75366211 0.06469727 C222.69967741 0.07652865 225.6455824 0.09385016 228.59155273 0.11352539 C232.86954188 9.08531947 236.50272874 18.28890607 240.12844276 27.53667068 C241.61227067 31.32101015 243.10271055 35.10273577 244.59265041 38.88467216 C245.38274097 40.8903415 246.17250887 42.89613795 246.96196842 44.90205574 C251.35309009 56.05726694 255.7771253 67.19935824 260.20483398 78.34008789 C260.60348537 79.3432177 261.00213676 80.3463475 261.4128685 81.37987518 C263.42887888 86.45242399 265.44542922 91.52475776 267.46240234 96.59692383 C269.11448746 100.75178347 270.76545038 104.90708657 272.41552734 109.06274414 C274.4564902 114.20282622 276.49922995 119.34219866 278.54326439 124.48106003 C279.30812662 126.40480729 280.07238512 128.32879473 280.83599281 130.25304031 C281.8925312 132.91506456 282.95136467 135.57616512 284.01074219 138.23706055 C284.31563065 139.00676682 284.6205191 139.77647308 284.93464661 140.56950378 C287.02503803 145.81057322 289.2668117 150.97228205 291.59155273 156.11352539 C292.27258057 156.12810791 292.9536084 156.14269043 293.65527344 156.15771484 C296.73877489 156.23215235 299.8211884 156.32882622 302.90405273 156.42602539 C304.51183594 156.45986328 304.51183594 156.45986328 306.15209961 156.49438477 C307.18012695 156.52983398 308.2081543 156.5652832 309.26733398 156.60180664 C310.68912964 156.64108276 310.68912964 156.64108276 312.13964844 156.68115234 C314.9928034 157.18428263 315.9272037 157.76872615 317.59155273 160.11352539 C317.91967773 163.39868164 317.91967773 163.39868164 317.84155273 167.17602539 C317.82608398 168.42512695 317.81061523 169.67422852 317.79467773 170.96118164 C317.59155273 174.11352539 317.59155273 174.11352539 316.59155273 176.11352539 C305.26543643 176.13664794 293.93932571 176.15444003 282.61319065 176.16533756 C277.3545861 176.17056659 272.09599763 176.17766458 266.83740234 176.18896484 C261.76702147 176.19979305 256.69665611 176.20580208 251.62626457 176.20840263 C249.68728325 176.210257 247.74830283 176.21387784 245.80932808 176.21925545 C243.10333514 176.22646499 240.39740718 176.22751637 237.69140625 176.22705078 C236.88148727 176.23064606 236.0715683 176.23424133 235.23710632 176.23794556 C229.7056049 176.22757755 229.7056049 176.22757755 228.59155273 175.11352539 C228.43837282 172.45349728 228.35995399 169.83730659 228.34155273 167.17602539 C228.31061523 166.06324219 228.31061523 166.06324219 228.27905273 164.92797852 C228.26342773 162.77368164 228.26342773 162.77368164 228.59155273 159.11352539 C231.84545261 156.9442588 232.72551231 156.8727249 236.47827148 156.91821289 C237.88496094 156.92788086 237.88496094 156.92788086 239.32006836 156.93774414 C240.78476562 156.96288086 240.78476562 156.96288086 242.27905273 156.98852539 C243.26711914 156.99754883 244.25518555 157.00657227 245.27319336 157.01586914 C247.71289038 157.03944109 250.1520997 157.07234517 252.59155273 157.11352539 C251.51479117 153.96540506 250.42891465 150.82049851 249.34155273 147.67602539 C249.04120117 146.7975293 248.74084961 145.9190332 248.43139648 145.01391602 C248.1284668 144.14057617 247.82553711 143.26723633 247.51342773 142.36743164 C247.24111328 141.57667236 246.96879883 140.78591309 246.68823242 139.97119141 C245.14679906 135.95461138 243.33884198 132.04492619 241.59155273 128.11352539 C218.49155273 128.11352539 195.39155273 128.11352539 171.59155273 128.11352539 C166.44972212 138.34991198 166.44972212 138.34991198 162.21655273 148.86352539 C161.82790039 149.92700195 161.82790039 149.92700195 161.43139648 151.01196289 C160.81177531 152.7101839 160.20065237 154.41150229 159.59155273 156.11352539 C160.18170166 156.13334473 160.77185059 156.15316406 161.37988281 156.17358398 C164.0550537 156.26887198 166.72944771 156.37853478 169.40405273 156.48852539 C170.33282227 156.51946289 171.2615918 156.55040039 172.21850586 156.58227539 C173.11118164 156.62094727 174.00385742 156.65961914 174.92358398 156.69946289 C175.74576416 156.73088379 176.56794434 156.76230469 177.41503906 156.79467773 C179.59155273 157.11352539 179.59155273 157.11352539 182.59155273 159.11352539 C182.59155273 164.72352539 182.59155273 170.33352539 182.59155273 176.11352539 C159.49155273 176.11352539 136.39155273 176.11352539 112.59155273 176.11352539 C112.59155273 175.45352539 112.59155273 174.79352539 112.59155273 174.11352539 C111.93155273 174.11352539 111.27155273 174.11352539 110.59155273 174.11352539 C110.59155273 174.77352539 110.59155273 175.43352539 110.59155273 176.11352539 C99.26543643 176.13664794 87.93932571 176.15444003 76.61319065 176.16533756 C71.3545861 176.17056659 66.09599763 176.17766458 60.83740234 176.18896484 C55.76702147 176.19979305 50.69665611 176.20580208 45.62626457 176.20840263 C43.68728325 176.210257 41.74830283 176.21387784 39.80932808 176.21925545 C37.10333514 176.22646499 34.39740718 176.22751637 31.69140625 176.22705078 C30.88148727 176.23064606 30.0715683 176.23424133 29.23710632 176.23794556 C23.7056049 176.22757755 23.7056049 176.22757755 22.59155273 175.11352539 C22.43837282 172.45349728 22.35995399 169.83730659 22.34155273 167.17602539 C22.32092773 166.43416992 22.30030273 165.69231445 22.27905273 164.92797852 C22.26342773 162.77368164 22.26342773 162.77368164 22.59155273 159.11352539 C25.84545261 156.9442588 26.72551231 156.8727249 30.47827148 156.91821289 C31.41606445 156.9246582 32.35385742 156.93110352 33.32006836 156.93774414 C34.78476562 156.96288086 34.78476562 156.96288086 36.27905273 156.98852539 C37.26711914 156.99754883 38.25518555 157.00657227 39.27319336 157.01586914 C41.71289038 157.03944109 44.1520997 157.07234517 46.59155273 157.11352539 C45.51479117 153.96540506 44.42891465 150.82049851 43.34155273 147.67602539 C43.04120117 146.7975293 42.74084961 145.9190332 42.43139648 145.01391602 C42.1284668 144.14057617 41.82553711 143.26723633 41.51342773 142.36743164 C41.24111328 141.57667236 40.96879883 140.78591309 40.68823242 139.97119141 C39.14679906 135.95461138 37.33884198 132.04492619 35.59155273 128.11352539 C12.49155273 128.11352539 -10.60844727 128.11352539 -34.40844727 128.11352539 C-39.55027788 138.34991198 -39.55027788 138.34991198 -43.78344727 148.86352539 C-44.04254883 149.57250977 -44.30165039 150.28149414 -44.56860352 151.01196289 C-45.18822469 152.7101839 -45.79934763 154.41150229 -46.40844727 156.11352539 C-45.81829834 156.13334473 -45.22814941 156.15316406 -44.62011719 156.17358398 C-41.9449463 156.26887198 -39.27055229 156.37853478 -36.59594727 156.48852539 C-35.20279297 156.53493164 -35.20279297 156.53493164 -33.78149414 156.58227539 C-32.44248047 156.6402832 -32.44248047 156.6402832 -31.07641602 156.69946289 C-30.25423584 156.73088379 -29.43205566 156.76230469 -28.58496094 156.79467773 C-26.40844727 157.11352539 -26.40844727 157.11352539 -23.40844727 159.11352539 C-23.40844727 164.72352539 -23.40844727 170.33352539 -23.40844727 176.11352539 C-46.50844727 176.11352539 -69.60844727 176.11352539 -93.40844727 176.11352539 C-94.92560017 173.07921958 -94.63358042 169.93946575 -94.65844727 166.61352539 C-94.68938477 165.57905273 -94.68938477 165.57905273 -94.72094727 164.52368164 C-94.73657227 162.51977539 -94.73657227 162.51977539 -94.40844727 159.11352539 C-91.22423882 156.99071976 -90.20307471 156.83333003 -86.52172852 156.69946289 C-85.58393555 156.66079102 -84.64614258 156.62211914 -83.67993164 156.58227539 C-82.21523438 156.53586914 -82.21523438 156.53586914 -80.72094727 156.48852539 C-79.73288086 156.44985352 -78.74481445 156.41118164 -77.72680664 156.37133789 C-75.2875402 156.27706672 -72.84828131 156.19146321 -70.40844727 156.11352539 C-63.5212405 141.25336397 -56.99735239 126.25331126 -50.57002258 111.19070435 C-50.23955429 110.41628998 -49.909086 109.64187561 -49.56860352 108.84399414 C-49.23285812 108.05709198 -48.89711273 107.27018982 -48.55119324 106.45944214 C-46.05965402 100.6250789 -43.54941675 94.79898262 -41.02954102 88.97680664 C-40.65478134 88.1108638 -40.28002167 87.24492096 -39.89390564 86.35273743 C-39.12264703 84.57090218 -38.35134013 82.78908784 -37.57998657 81.0072937 C-31.71916363 67.46873012 -25.8893769 53.91761717 -20.11938477 40.34008789 C-19.85490791 39.71793962 -19.59043106 39.09579136 -19.31793976 38.45479012 C-16.44395923 31.69405248 -13.57388777 24.931686 -10.70922852 18.16699219 C-9.76267072 15.93690623 -8.81605889 13.70684321 -7.86938477 11.47680664 C-7.43177826 10.44049103 -6.99417175 9.40417542 -6.54330444 8.3364563 C-6.14350372 7.39575287 -5.743703 6.45504944 -5.33178711 5.48583984 C-4.98272308 4.66146927 -4.63365906 3.83709869 -4.27401733 2.98774719 C-2.95859433 0.13945731 -2.95859433 0.13945731 0 0 Z M2.59155273 38.11352539 C-3.38944876 49.33352443 -8.13730047 61.08122572 -13.03344727 72.80102539 C-14.30619673 75.8380706 -15.5801072 78.87462455 -16.85482788 81.9108429 C-17.64204133 83.78687942 -18.42795875 85.66346054 -19.21231079 87.54069519 C-19.5730368 88.40221695 -19.93376282 89.26373871 -20.30541992 90.15136719 C-20.65163391 90.97929779 -20.9978479 91.80722839 -21.35455322 92.6602478 C-22.72368512 95.84734295 -24.19198939 98.98587912 -25.68588257 102.11628723 C-26.6352489 104.38643927 -26.6352489 104.38643927 -26.40844727 108.11352539 C-8.25844727 108.11352539 9.89155273 108.11352539 28.59155273 108.11352539 C27.73614683 102.90003836 27.73614683 102.90003836 26.24389648 98.03369141 C25.97242294 97.28681061 25.7009494 96.53992981 25.42124939 95.77041626 C25.12682449 94.97743134 24.8323996 94.18444641 24.52905273 93.36743164 C24.22145523 92.52691254 23.91385773 91.68639343 23.59693909 90.82040405 C22.60065995 88.10354646 21.59643265 85.38971232 20.59155273 82.67602539 C19.90769528 80.81810095 19.22402053 78.96010926 18.54052734 77.10205078 C13.72427988 64.03945524 8.77930043 51.03368836 3.59155273 38.11352539 C3.26155273 38.11352539 2.93155273 38.11352539 2.59155273 38.11352539 Z M208.59155273 38.11352539 C202.61055124 49.33352443 197.86269953 61.08122572 192.96655273 72.80102539 C191.69380327 75.8380706 190.4198928 78.87462455 189.14517212 81.9108429 C188.35795867 83.78687942 187.57204125 85.66346054 186.78768921 87.54069519 C186.4269632 88.40221695 186.06623718 89.26373871 185.69458008 90.15136719 C185.34836609 90.97929779 185.0021521 91.80722839 184.64544678 92.6602478 C183.27631488 95.84734295 181.80801061 98.98587912 180.31411743 102.11628723 C179.3647511 104.38643927 179.3647511 104.38643927 179.59155273 108.11352539 C197.74155273 108.11352539 215.89155273 108.11352539 234.59155273 108.11352539 C233.73614683 102.90003836 233.73614683 102.90003836 232.24389648 98.03369141 C231.97242294 97.28681061 231.7009494 96.53992981 231.42124939 95.77041626 C231.12682449 94.97743134 230.8323996 94.18444641 230.52905273 93.36743164 C230.22145523 92.52691254 229.91385773 91.68639343 229.59693909 90.82040405 C228.60065995 88.10354646 227.59643265 85.38971232 226.59155273 82.67602539 C225.90769528 80.81810095 225.22402053 78.96010926 224.54052734 77.10205078 C219.72427988 64.03945524 214.77930043 51.03368836 209.59155273 38.11352539 C209.26155273 38.11352539 208.93155273 38.11352539 208.59155273 38.11352539 Z " fill="#FF895B" transform="translate(633.408447265625,734.886474609375)"/>
<path d="M0 0 C0.81637939 -0.00175232 1.63275879 -0.00350464 2.47387695 -0.00531006 C5.18052274 -0.0097221 7.88710352 -0.00679285 10.59375 -0.00341797 C12.46940117 -0.00409119 14.34505225 -0.00506138 16.22070312 -0.00631714 C20.15495635 -0.00779323 24.0891869 -0.00564238 28.0234375 -0.00097656 C33.07444056 0.00472067 38.12539049 0.0014412 43.1763916 -0.00454903 C47.05045983 -0.00815701 50.92451539 -0.00701495 54.79858398 -0.00442123 C56.66137702 -0.00375262 58.52417119 -0.0045781 60.38696289 -0.00690079 C62.98717305 -0.00943118 65.58729633 -0.00558121 68.1875 0 C68.96262939 -0.00202423 69.73775879 -0.00404846 70.53637695 -0.00613403 C75.86522156 0.01513031 75.86522156 0.01513031 78.09375 1.12939453 C78.12059312 3.94195734 78.14051188 6.75426694 78.15625 9.56689453 C78.16462891 10.36933594 78.17300781 11.17177734 78.18164062 11.99853516 C78.1902643 14.04234674 78.1460315 16.08623355 78.09375 18.12939453 C76.41074331 19.81240122 74.27366273 19.3574853 71.96484375 19.44580078 C70.93037109 19.48769531 69.89589844 19.52958984 68.83007812 19.57275391 C67.74146484 19.61207031 66.65285156 19.65138672 65.53125 19.69189453 C63.8925293 19.75666992 63.8925293 19.75666992 62.22070312 19.82275391 C59.51185436 19.92921521 56.80291008 20.0312297 54.09375 20.12939453 C59.64521683 34.10850406 65.19972217 48.08640332 70.7578249 62.06287575 C73.33860427 68.55274009 75.91839625 75.04299362 78.49584961 81.53417969 C80.9832531 87.79857157 83.47342634 94.06185577 85.96529198 100.32447433 C86.91550692 102.71389656 87.86479327 105.10368827 88.81313515 107.49385452 C90.14160267 110.84161266 91.47336629 114.18804163 92.8059082 117.53417969 C93.19720413 118.52248779 93.58850006 119.5107959 93.99165344 120.52905273 C95.84754565 125.17966241 97.85241043 129.64893617 100.09375 134.12939453 C100.09375 134.78939453 100.09375 135.44939453 100.09375 136.12939453 C103.91430644 132.85493048 105.66208282 129.16654567 107.53515625 124.60595703 C107.85524155 123.84873352 108.17532684 123.09151001 108.50511169 122.31134033 C109.565149 119.79629421 110.61078979 117.27553117 111.65625 114.75439453 C112.40097389 112.97821407 113.14643121 111.20234096 113.89257812 109.42675781 C116.30807883 103.6672187 118.70173271 97.8987172 121.09375 92.12939453 C121.92944895 90.11699327 122.7652241 88.10462364 123.60107422 86.09228516 C128.37076209 74.60303666 133.12605504 63.10787248 137.84375 51.59716797 C139.4308119 47.72852871 141.03864796 43.86914854 142.65625 40.01318359 C143.28358032 38.50729172 143.28358032 38.50729172 143.92358398 36.97097778 C144.72738586 35.04161051 145.53654432 33.11446353 146.35180664 31.18991089 C146.71137451 30.32318756 147.07094238 29.45646423 147.44140625 28.56347656 C147.76117432 27.80197296 148.08094238 27.04046936 148.41040039 26.25588989 C149.29771101 23.86696026 149.29771101 23.86696026 149.09375 20.12939453 C138.20375 19.63439453 138.20375 19.63439453 127.09375 19.12939453 C127.0628125 14.70533203 127.0628125 14.70533203 127.03125 10.19189453 C127.022146 9.26127197 127.01304199 8.33064941 127.00366211 7.37182617 C126.99991577 6.27922485 126.99991577 6.27922485 126.99609375 5.16455078 C126.99085693 4.41568604 126.98562012 3.66682129 126.98022461 2.89526367 C127.09375 1.12939453 127.09375 1.12939453 128.09375 0.12939453 C130.05075135 0.02834783 132.01144798 -0.00137923 133.97105408 -0.00431824 C135.24848984 -0.00858322 136.5259256 -0.01284821 137.84207153 -0.01724243 C139.27093509 -0.01689287 140.69979862 -0.01643131 142.12866211 -0.01586914 C143.62308334 -0.01885901 145.11750379 -0.02226113 146.61192322 -0.02604675 C150.68212052 -0.03490853 154.75229683 -0.03722578 158.82250285 -0.03786254 C162.21483985 -0.03880983 165.60717191 -0.04248604 168.99950701 -0.04603463 C176.99991801 -0.05418746 185.00031775 -0.05661811 193.00073242 -0.0559082 C201.26625049 -0.05530718 209.53170335 -0.06586202 217.79720491 -0.08165187 C224.88255114 -0.09470719 231.96787599 -0.10009295 239.05323416 -0.09945279 C243.28987101 -0.09919721 247.52644995 -0.10208123 251.76307487 -0.11263084 C255.74635605 -0.12227816 259.72952354 -0.12241432 263.71280861 -0.11511421 C265.17778564 -0.11406416 266.64276963 -0.11645602 268.10773468 -0.12247467 C270.10162975 -0.13013807 272.09556318 -0.12437622 274.08946228 -0.11784363 C275.76609908 -0.11866078 275.76609908 -0.11866078 277.47660732 -0.11949444 C280.09375 0.12939453 280.09375 0.12939453 282.09375 2.12939453 C282.26545903 4.85636676 282.3262068 7.46845921 282.28125 10.19189453 C282.28060547 10.93761719 282.27996094 11.68333984 282.27929688 12.45166016 C282.23403159 17.98911294 282.23403159 17.98911294 281.09375 19.12939453 C279.38811222 19.28680059 277.67647756 19.38032845 275.96484375 19.44580078 C275.03341553 19.48390869 274.1019873 19.5220166 273.14233398 19.5612793 C271.35484741 19.62593384 271.35484741 19.62593384 269.53125 19.69189453 C267.49095443 19.76961425 265.45067202 19.84767968 263.41040039 19.92602539 C261.90516563 19.98360268 261.90516563 19.98360268 260.36952209 20.04234314 C259.6185173 20.0710701 258.86751251 20.09979706 258.09375 20.12939453 C266.86368292 43.03076242 275.93465349 65.8040215 285.11328125 88.54425049 C286.52480211 92.04290251 287.93412199 95.54243933 289.34340763 99.04199219 C290.71450833 102.44637864 292.08646844 105.85041818 293.45873833 109.2543335 C294.10673848 110.86173299 294.75458564 112.46919417 295.40226936 114.07672119 C296.30001114 116.3042389 297.19879684 118.53133245 298.09790039 120.75830078 C298.35813492 121.40443832 298.61836945 122.05057587 298.88648987 122.71629333 C300.56857817 126.8784494 302.31381155 131.00847278 304.09375 135.12939453 C307.39460452 134.41455341 307.39460452 134.41455341 308.69335938 131.07397461 C309.28608915 129.68708753 309.86647776 128.29489067 310.4375 126.89892578 C310.75895493 126.13754807 311.08040985 125.37617035 311.41160583 124.59172058 C312.48299414 122.04611139 313.53837417 119.49417947 314.59375 116.94189453 C315.34363837 115.15052534 316.09438663 113.3595159 316.84594727 111.56884766 C319.27796097 105.76233228 321.68648819 99.94620477 324.09375 94.12939453 C324.92548464 92.1233169 325.75735342 90.11729487 326.58935547 88.11132812 C331.05376394 77.34299845 335.49947096 66.56707291 339.93499756 55.78681946 C342.10085449 50.52705737 344.27983959 45.27314003 346.48046875 40.02783203 C347.1931189 38.32820312 347.1931189 38.32820312 347.92016602 36.59423828 C348.75020942 34.61923747 349.58250801 32.64518195 350.41772461 30.67236328 C350.76714111 29.84091797 351.11655762 29.00947266 351.4765625 28.15283203 C351.76934082 27.46108887 352.06211914 26.7693457 352.36376953 26.05664062 C353.2538531 23.81998509 353.2538531 23.81998509 354.09375 20.12939453 C346.50375 19.79939453 338.91375 19.46939453 331.09375 19.12939453 C330.02989517 15.93783005 329.92697018 13.54441977 329.90625 10.19189453 C329.89207031 9.15162109 329.87789062 8.11134766 329.86328125 7.03955078 C330.09366207 4.13050477 330.72979602 2.64546223 332.09375 0.12939453 C340.66450848 0.05996827 349.23515001 0.00662112 357.80611992 -0.02604198 C361.78572374 -0.04171648 365.76513559 -0.06298685 369.74462891 -0.09692383 C373.58309956 -0.12945434 377.42138524 -0.14744503 381.25998306 -0.1552372 C382.72647134 -0.16079213 384.19294918 -0.17163926 385.65935898 -0.18779564 C387.70916591 -0.20948707 389.75820275 -0.21257602 391.80810547 -0.21118164 C392.97614716 -0.21784348 394.14418884 -0.22450531 395.34762573 -0.23136902 C396.25384674 -0.11231705 397.16006775 0.00673492 398.09375 0.12939453 C400.56202522 3.83180735 400.33134026 5.78850564 400.28125 10.19189453 C400.27480469 11.44099609 400.26835938 12.69009766 400.26171875 13.97705078 C400.09375 17.12939453 400.09375 17.12939453 399.09375 19.12939453 C398.50883789 19.13874023 397.92392578 19.14808594 397.32128906 19.15771484 C394.6612642 19.21152733 392.00297778 19.29514902 389.34375 19.37939453 C387.96316406 19.40066406 387.96316406 19.40066406 386.5546875 19.42236328 C385.22050781 19.47070312 385.22050781 19.47070312 383.859375 19.52001953 C383.04243164 19.5409668 382.22548828 19.56191406 381.38378906 19.58349609 C378.14459542 20.35565356 377.14252022 21.49096697 375.09375 24.12939453 C373.60000657 26.96164191 372.38965596 29.88933355 371.1796875 32.85205078 C370.81279312 33.72773209 370.44589874 34.60341339 370.06788635 35.50563049 C368.85889571 38.39727988 367.66389172 41.29449705 366.46875 44.19189453 C365.62016112 46.22858164 364.7706187 48.2648717 363.92016602 50.30078125 C362.16419816 54.50832732 360.41361697 58.7180521 358.66748047 62.9296875 C356.2823963 68.68020321 353.88123741 74.42384269 351.47265625 80.16455078 C350.72850584 81.93855384 349.98436516 83.71256097 349.24023438 85.48657227 C348.87534912 86.35643768 348.51046387 87.2263031 348.13452148 88.12252808 C346.28590657 92.53241962 344.44174385 96.9441708 342.59765625 101.35595703 C338.27809438 111.68933996 333.95531362 122.02137297 329.63088989 132.35272217 C328.16057893 135.86570011 326.69065467 139.37883961 325.22135925 142.89224243 C324.533825 144.53383658 323.84473907 146.17478181 323.15400696 147.81503296 C321.38107996 152.02826182 319.63742536 156.25058986 317.93457031 160.49267578 C317.57996735 161.3644043 317.22536438 162.23613281 316.86001587 163.13427734 C316.18486313 164.7951186 315.51876608 166.45968055 314.8633728 168.12841797 C311.94291975 175.25973214 311.94291975 175.25973214 308.09375 177.12939453 C305.94311523 177.48583984 305.94311523 177.48583984 303.65234375 177.45751953 C302.40614258 177.44978516 302.40614258 177.44978516 301.13476562 177.44189453 C300.27560547 177.42126953 299.41644531 177.40064453 298.53125 177.37939453 C297.66822266 177.37423828 296.80519531 177.36908203 295.91601562 177.36376953 C292.33628188 177.31926624 289.5165492 177.2703276 286.09375 176.12939453 C281.36126036 169.04119456 278.57785636 160.32483699 275.33728027 152.45315552 C274.37441193 150.1145671 273.40702665 147.77789103 272.43847656 145.44165039 C271.39941197 142.93529528 270.3605731 140.4288498 269.32296753 137.92189026 C265.3546533 128.33486694 261.35130819 118.76256618 257.34375 109.19189453 C256.97296326 108.30613739 256.60217651 107.42038025 256.22015381 106.50778198 C250.17978938 92.08044962 244.11316928 77.66425497 238.03125 63.25439453 C237.64578003 62.34070099 237.26031006 61.42700745 236.86315918 60.48562622 C234.28000827 54.36405197 231.68949547 48.24563808 229.09375 42.12939453 C228.68247864 41.15901245 228.27120728 40.18863037 227.84747314 39.18884277 C226.60023897 36.24859718 225.34945855 33.30988524 224.09765625 30.37158203 C223.71125473 29.45982208 223.32485321 28.54806213 222.92674255 27.6086731 C222.39174889 26.35605179 222.39174889 26.35605179 221.84594727 25.078125 C221.53101822 24.33803192 221.21608917 23.59793884 220.89161682 22.8354187 C220.21585613 21.13784592 220.21585613 21.13784592 219.09375 20.12939453 C217.73416146 20.01594748 216.36883989 19.96989324 215.00463867 19.95239258 C214.13671188 19.93955734 213.2687851 19.92672211 212.3745575 19.91349792 C211.42982071 19.90611099 210.48508392 19.89872406 209.51171875 19.89111328 C208.06313225 19.87900566 208.06313225 19.87900566 206.58528137 19.86665344 C204.53660894 19.85279437 202.48791324 19.84208041 200.43920898 19.83422852 C197.30473025 19.81702341 194.17130803 19.7731545 191.03710938 19.72900391 C189.04948695 19.71887683 187.06185552 19.71036077 185.07421875 19.70361328 C184.13555466 19.68610519 183.19689056 19.66859711 182.2297821 19.65055847 C177.18041369 19.63244368 177.18041369 19.63244368 172.68505859 21.66992188 C170.57769579 24.92699044 169.07681232 28.31567565 167.65234375 31.90673828 C167.33266632 32.68798569 167.01298889 33.46923309 166.68362427 34.27415466 C165.98955769 35.9732889 165.30003526 37.67428483 164.61453247 39.37689209 C163.12816924 43.06782296 161.61954659 46.74952271 160.11210632 50.43188477 C159.31668063 52.37528924 158.52235765 54.31914538 157.7290802 56.26342773 C153.46073897 66.71495352 149.06250821 77.11044989 144.65625 87.50439453 C143.06419106 91.26442521 141.47321324 95.0249122 139.8828125 98.78564453 C139.48870178 99.71747055 139.09459106 100.64929657 138.6885376 101.60935974 C134.66129627 111.13907529 130.67489173 120.68575126 126.68893433 130.23278809 C116.04379249 155.71827067 116.04379249 155.71827067 111.09375 167.25439453 C110.50678345 168.64053955 110.50678345 168.64053955 109.90795898 170.0546875 C109.55677002 170.86566895 109.20558105 171.67665039 108.84375 172.51220703 C108.54984375 173.19686035 108.2559375 173.88151367 107.953125 174.58691406 C107.09375 176.12939453 107.09375 176.12939453 105.09375 177.12939453 C101.83029645 177.44670263 98.55824132 177.45358846 95.28125 177.50439453 C94.37826172 177.54177734 93.47527344 177.57916016 92.54492188 177.61767578 C91.66771484 177.62927734 90.79050781 177.64087891 89.88671875 177.65283203 C89.0877417 177.67265137 88.28876465 177.6924707 87.46557617 177.71289062 C83.85049575 176.82353991 82.43529903 174.97944273 80.09375 172.12939453 C78.68160397 169.6369884 77.59486028 167.0553403 76.51953125 164.40283203 C76.19857986 163.63986313 75.87762848 162.87689423 75.54695129 162.09080505 C74.48842099 159.56668555 73.44745449 157.03570446 72.40625 154.50439453 C71.6565889 152.70793326 70.90575167 150.91196238 70.15380859 149.11645508 C68.57941117 145.35154022 67.01212398 141.58378334 65.45068359 137.81347656 C63.19574579 132.3700073 60.92320705 126.93405684 58.64453125 121.50048828 C57.90777371 119.7431735 57.17103871 117.98584927 56.43432617 116.22851562 C56.06922943 115.3576532 55.70413269 114.48679077 55.32797241 113.58953857 C53.83633827 110.02910181 52.34785258 106.46735231 50.85926819 102.90563965 C35.57028999 66.32622333 35.57028999 66.32622333 19.96875 29.87939453 C19.57300781 28.96319336 19.17726563 28.04699219 18.76953125 27.10302734 C17.35020758 23.3516921 17.35020758 23.3516921 15.09375 20.12939453 C13.32641824 19.98386721 11.55374006 19.90216984 9.78125 19.84814453 C8.70617187 19.81076172 7.63109375 19.77337891 6.5234375 19.73486328 C5.39164063 19.70005859 4.25984375 19.66525391 3.09375 19.62939453 C0.86444493 19.56083959 -1.36473824 19.48815213 -3.59375 19.41064453 C-4.58761719 19.38035156 -5.58148437 19.35005859 -6.60546875 19.31884766 C-8.90625 19.12939453 -8.90625 19.12939453 -9.90625 18.12939453 C-9.97950168 15.26671886 -9.99863205 12.42867554 -9.96875 9.56689453 C-9.96423828 8.76058594 -9.95972656 7.95427734 -9.95507812 7.12353516 C-9.94325518 5.12545697 -9.92531914 3.1274167 -9.90625 1.12939453 C-6.7746664 -0.43639727 -3.43735206 -0.00897656 0 0 Z " fill="#FF895B" transform="translate(930.90625,737.87060546875)"/>
<path d="M0 0 C6.8317953 -0.07634871 13.66347968 -0.12872499 20.49560547 -0.16479492 C22.8175874 -0.17983911 25.13954112 -0.20027945 27.46142578 -0.22631836 C30.80768823 -0.26289345 34.15357344 -0.27977054 37.5 -0.29296875 C38.5305249 -0.30845261 39.5610498 -0.32393646 40.62280273 -0.33988953 C48.21917081 -0.3416452 54.03155949 0.46445706 60 5.5625 C62.68648173 10.17989047 62.90140332 13.77866379 62 19 C59.48108715 24.44085177 56.17212938 26.41393531 51 29 C51.66386719 29.24234375 52.32773437 29.4846875 53.01171875 29.734375 C58.9986034 32.00676917 63.60065281 34.08650698 67.75 39.125 C70.60566495 45.69302938 70.67982488 52.24535638 68.0703125 58.8984375 C64.07844786 66.73647828 58.13413237 70.28862254 50 73 C48.48092376 73.08669529 46.95830999 73.117694 45.43676758 73.11352539 C44.51603958 73.11344986 43.59531158 73.11337433 42.64668274 73.11329651 C41.65597275 73.10813522 40.66526276 73.10297394 39.64453125 73.09765625 C38.62775803 73.0962413 37.6109848 73.09482635 36.56340027 73.09336853 C33.31307036 73.08776707 30.06280912 73.07521432 26.8125 73.0625 C24.61002704 73.05748519 22.40755299 73.05292225 20.20507812 73.04882812 C14.80336196 73.03779717 9.40168588 73.02105762 4 73 C4 71.68 4 70.36 4 69 C4.969375 68.71125 5.93875 68.4225 6.9375 68.125 C10.10664203 67.35785318 10.10664203 67.35785318 11 65 C11.10105776 63.19293092 11.13837941 61.38214516 11.14526367 59.57226562 C11.15164352 58.43768921 11.15802338 57.30311279 11.16459656 56.13415527 C11.16626579 54.28884216 11.16626579 54.28884216 11.16796875 52.40625 C11.17129715 51.14864868 11.17462555 49.89104736 11.17805481 48.59533691 C11.18312512 45.93217436 11.18589475 43.26911383 11.18530273 40.60595703 C11.185201 37.18930914 11.19886531 33.77286854 11.21607494 30.35626984 C11.22984805 27.10210417 11.22928305 23.84794089 11.23046875 20.59375 C11.23765427 19.36354126 11.24483978 18.13333252 11.25224304 16.86584473 C11.24916641 15.73126831 11.24608978 14.59669189 11.24291992 13.42773438 C11.24434494 12.42560913 11.24576996 11.42348389 11.24723816 10.39099121 C11.23479686 7.81437914 11.23479686 7.81437914 9 6 C6.80295489 5.32348793 6.80295489 5.32348793 4.375 4.875 C3.55773437 4.70742188 2.74046875 4.53984375 1.8984375 4.3671875 C1.27195312 4.24601563 0.64546875 4.12484375 0 4 C0 2.68 0 1.36 0 0 Z M27 7 C24.86395692 10.20406462 24.75791092 10.99600747 24.8046875 14.66796875 C24.81113281 15.56064453 24.81757812 16.45332031 24.82421875 17.37304688 C24.84097656 18.30181641 24.85773437 19.23058594 24.875 20.1875 C24.88402344 21.12787109 24.89304687 22.06824219 24.90234375 23.03710938 C24.92590944 25.35832968 24.95880884 27.67903644 25 30 C27.54555524 29.60093433 30.08491297 29.1815034 32.625 28.75 C33.33785156 28.64042969 34.05070313 28.53085937 34.78515625 28.41796875 C39.67700475 27.56526121 43.03782766 26.1649785 47 23 C49.4720477 19.29192845 49.65499002 16.29942166 49 12 C47.44280341 9.01537321 46.2628422 7.49426816 43.09375 6.25390625 C37.31550102 4.69076054 32.62731129 4.67567577 27 7 Z M27 36 C23.95959711 40.56060433 24.67109627 45.07348014 24.6875 50.4375 C24.67138672 51.48744141 24.65527344 52.53738281 24.63867188 53.61914062 C24.63802734 54.63041016 24.63738281 55.64167969 24.63671875 56.68359375 C24.63373779 57.60712646 24.63075684 58.53065918 24.62768555 59.48217773 C25.07115849 62.48121804 25.91065372 63.82853833 28 66 C33.79531162 67.93177054 41.160852 68.042837 46.9375 65.875 C51.42440432 63.12791573 54.30026287 60.09921138 56 55 C56.51549132 50.09015642 56.53143398 46.1478974 54.4375 41.625 C49.41626166 36.21751255 44.72286395 34.4238325 37.50390625 33.9609375 C33.64383184 34.02115707 30.64604257 34.69784194 27 36 Z " fill="#FF895B" transform="translate(633,980)"/>
<path d="M0 0 C6.52865035 -0.07645954 13.05718396 -0.12877088 19.58618164 -0.16479492 C21.8043245 -0.17982277 24.02243793 -0.20025077 26.24047852 -0.22631836 C29.44034108 -0.26296624 32.63980861 -0.27978688 35.83984375 -0.29296875 C36.82145981 -0.30845261 37.80307587 -0.32393646 38.81443787 -0.33988953 C45.70967947 -0.34155115 52.6291938 0.2581667 58.15625 4.75390625 C58.5996875 5.35074219 59.043125 5.94757812 59.5 6.5625 C59.9640625 7.16191406 60.428125 7.76132812 60.90625 8.37890625 C63.79816259 12.66513384 63.41104952 16.97433792 63 22 C61.21314227 27.46568246 57.70044858 30.86328333 53 34 C50.35452408 35.23486376 47.79437118 36.117567 45 37 C49.02079975 43.47250692 53.60371312 49.34487541 58.5546875 55.12890625 C60.02918222 56.86014206 61.4800403 58.61249955 62.8828125 60.40234375 C66.92510001 65.4505028 70.89060561 67.89426769 77 70 C77 70.99 77 71.98 77 73 C58.39903406 73.81266356 58.39903406 73.81266356 53 69 C47.96335797 63.69131712 43.51079916 57.95115457 39.02734375 52.17578125 C38.54112549 51.55106934 38.05490723 50.92635742 37.55395508 50.28271484 C36.6258669 49.08427123 35.70469466 47.88042802 34.79174805 46.67041016 C32.74927219 44.00691911 30.88802504 41.91702686 28.1796875 39.91015625 C26 38 26 38 25.6875 35.25 C25.790625 34.5075 25.89375 33.765 26 33 C26.94101563 32.90203125 27.88203125 32.8040625 28.8515625 32.703125 C38.25003132 31.7954894 38.25003132 31.7954894 46 27 C47.91085271 23.91883265 48.24786779 21.60011554 48.1875 18 C48.17783203 16.7315625 48.17783203 16.7315625 48.16796875 15.4375 C48.01154076 13.16747523 47.63089814 11.18038396 47 9 C45.38268535 8.45577055 43.75542888 7.94108122 42.125 7.4375 C41.22007813 7.14746094 40.31515625 6.85742188 39.3828125 6.55859375 C36.21355433 6.03526359 33.94716498 6.11225459 30.78857422 6.46508789 C29.89097382 6.56294083 28.99337341 6.66079376 28.068573 6.76161194 C27.38594391 6.84028 26.70331482 6.91894806 26 7 C25.95370832 14.65807215 25.91814697 22.31612984 25.89637566 29.97430992 C25.88592776 33.53012399 25.87175041 37.0858425 25.84912109 40.64160156 C25.82328168 44.727223 25.81353556 48.81274369 25.8046875 52.8984375 C25.79436493 54.17866791 25.78404236 55.45889832 25.77340698 56.77792358 C25.77325592 57.95899689 25.77310486 59.14007019 25.77294922 60.35693359 C25.76628738 61.92246475 25.76628738 61.92246475 25.75949097 63.5196228 C25.75180998 66.17551768 25.75180998 66.17551768 28 68 C29.96690374 68.67292501 29.96690374 68.67292501 32.125 69.125 C33.40375 69.41375 34.6825 69.7025 36 70 C36 70.99 36 71.98 36 73 C25.11 73 14.22 73 3 73 C3 72.01 3 71.02 3 70 C4.134375 69.566875 5.26875 69.13375 6.4375 68.6875 C7.613125 68.130625 8.78875 67.57375 10 67 C11.00184599 63.99446202 11.12668738 61.99770836 11.12939453 58.85766602 C11.13254669 57.80970352 11.13569885 56.76174103 11.13894653 55.68202209 C11.1369223 54.55074387 11.13489807 53.41946564 11.1328125 52.25390625 C11.13376923 51.09124741 11.13472595 49.92858856 11.13571167 48.73069763 C11.13639261 46.27025295 11.13454433 43.80980647 11.13037109 41.34936523 C11.12502649 37.58117638 11.13031655 33.81310699 11.13671875 30.04492188 C11.13605786 27.65624974 11.13477647 25.26757767 11.1328125 22.87890625 C11.13483673 21.74965225 11.13686096 20.62039825 11.13894653 19.45692444 C11.13579437 18.40580978 11.13264221 17.35469513 11.12939453 16.27172852 C11.12859894 15.34812027 11.12780334 14.42451202 11.12698364 13.47291565 C11.00700189 11.13635675 10.80342573 9.1973012 10 7 C7.68684675 5.85706445 7.68684675 5.85706445 4.9375 5.25 C4.01839844 5.00765625 3.09929687 4.7653125 2.15234375 4.515625 C1.44207031 4.34546875 0.73179688 4.1753125 0 4 C0 2.68 0 1.36 0 0 Z " fill="#FF895B" transform="translate(1073,980)"/>
<path d="M0 0 C6.9009116 -0.10220311 13.80162492 -0.17179948 20.703125 -0.21972656 C23.04629815 -0.23972611 25.38942214 -0.26693477 27.73242188 -0.30175781 C31.11861371 -0.35079125 34.50414041 -0.37308621 37.890625 -0.390625 C38.92237854 -0.41127014 39.95413208 -0.43191528 41.01715088 -0.45318604 C52.6051367 -0.45668658 61.64279715 2.63982221 69.9375 10.76171875 C77.39337948 18.85304251 78.56334725 27.02873281 78.3125 37.7265625 C77.72440587 48.84644241 72.18978532 57.14833989 64.375 64.6875 C52.14056291 74.4670007 39.68879928 73.62240933 24.75 73.3125 C22.63674524 73.28737694 20.52346159 73.26457088 18.41015625 73.24414062 C13.27271482 73.18948426 8.13668141 73.1034338 3 73 C3 71.68 3 70.36 3 69 C4.134375 68.566875 5.26875 68.13375 6.4375 67.6875 C7.613125 67.130625 8.78875 66.57375 10 66 C10.99986428 63.00040717 11.13231723 60.9919195 11.14526367 57.85766602 C11.15164352 56.80970352 11.15802338 55.76174103 11.16459656 54.68202209 C11.16626579 52.98510475 11.16626579 52.98510475 11.16796875 51.25390625 C11.17129715 50.09124741 11.17462555 48.92858856 11.17805481 47.73069763 C11.18312056 45.27025753 11.18546324 42.80981055 11.18530273 40.34936523 C11.18748921 36.58110261 11.20564889 32.81313268 11.22460938 29.04492188 C11.22754333 26.656251 11.22952811 24.26757874 11.23046875 21.87890625 C11.23765427 20.74965225 11.24483978 19.62039825 11.25224304 18.45692444 C11.24916641 17.40580978 11.24608978 16.35469513 11.24291992 15.27172852 C11.24505745 13.88631615 11.24505745 13.88631615 11.24723816 12.47291565 C10.98334387 9.83340273 10.4417147 8.21684872 9 6 C6.82791412 5.08839907 6.82791412 5.08839907 4.375 4.75 C3.55773437 4.60046875 2.74046875 4.4509375 1.8984375 4.296875 C1.27195312 4.19890625 0.64546875 4.1009375 0 4 C0 2.68 0 1.36 0 0 Z M25 9 C24.67272406 11.40422092 24.67272406 11.40422092 24.69360352 14.22827148 C24.67761612 15.3195787 24.66162872 16.41088593 24.64515686 17.53526306 C24.63979416 18.71858719 24.63443146 19.90191132 24.62890625 21.12109375 C24.61987778 22.3319313 24.6108493 23.54276886 24.60154724 24.79029846 C24.58701793 27.35504676 24.57815139 29.91983234 24.57446289 32.48461914 C24.56255868 36.41811205 24.51338841 40.35004123 24.46289062 44.28320312 C24.4534281 46.77082564 24.44619225 49.25845784 24.44140625 51.74609375 C24.42187393 52.92739365 24.40234161 54.10869354 24.38221741 55.32579041 C24.38829514 56.42024979 24.39437286 57.51470917 24.40063477 58.64233398 C24.39556412 59.60670883 24.39049347 60.57108368 24.38526917 61.56468201 C24.78909048 64.22638109 24.78909048 64.22638109 27.36265564 65.80995178 C33.40032025 68.53432563 40.72310157 67.64450672 46.9375 65.75 C54.69136064 62.69587144 58.41917579 57.34016459 62 50 C65.37896373 40.21818636 65.75953291 28.49568735 61.18359375 19.04296875 C57.18479546 12.14075256 52.43550646 8.63670442 45 6 C38.19842253 4.56317842 30.29716282 3.70283718 25 9 Z " fill="#FF895A" transform="translate(714,980)"/>
<path d="M0 0 C2.64 0 5.28 0 8 0 C11.50703863 8.24279376 14.30839299 16.6969092 17.11575317 25.19512558 C17.95320655 27.72717646 18.79596518 30.25740288 19.64038086 32.78713989 C22.03849791 39.97186076 24.43374941 47.15747991 26.80957031 54.34960938 C28.26927564 58.76716489 29.7405598 63.18071484 31.21951294 67.59186172 C31.7788074 69.26733314 32.33376499 70.94425886 32.88424683 72.62264633 C33.6527712 74.96432319 34.4359557 77.30060828 35.22265625 79.63623047 C35.44511017 80.32614578 35.66756409 81.0160611 35.89675903 81.72688293 C37.26172473 85.71856609 38.68426671 88.35679658 42 91 C45.13350717 92.26784124 45.13350717 92.26784124 48 93 C48 93.99 48 94.98 48 96 C36.78 96 25.56 96 14 96 C14 95.01 14 94.02 14 93 C17.96 92.01 17.96 92.01 22 91 C21.47902207 83.84572565 19.80995512 77.68842676 17.4375 70.9375 C17.10814453 69.97650391 16.77878906 69.01550781 16.43945312 68.02539062 C15.63452834 65.68060973 14.82128851 63.33908854 14 61 C9.72952167 60.85513981 5.45967167 60.76607384 1.1875 60.6875 C-0.63491211 60.6246582 -0.63491211 60.6246582 -2.49414062 60.56054688 C-3.65751953 60.54443359 -4.82089844 60.52832031 -6.01953125 60.51171875 C-7.09307861 60.48553467 -8.16662598 60.45935059 -9.27270508 60.43237305 C-12.18687297 60.73151486 -12.18687297 60.73151486 -13.7734375 63.28295898 C-15.42290289 66.93680062 -16.84988104 70.59663929 -18.1875 74.375 C-18.46013672 75.10460938 -18.73277344 75.83421875 -19.01367188 76.5859375 C-20.6813489 81.26713615 -21.29482742 85.03379586 -21 90 C-17.7 90.99 -14.4 91.98 -11 93 C-11 93.99 -11 94.98 -11 96 C-20.9 96 -30.8 96 -41 96 C-41 95.01 -41 94.02 -41 93 C-39.948125 92.71125 -38.89625 92.4225 -37.8125 92.125 C-31.80393214 89.52481917 -30.12395563 82.83741062 -27.85339355 77.10540771 C-26.68340255 73.95455926 -25.56119719 70.79032977 -24.453125 67.6171875 C-24.0376239 66.44527863 -23.6221228 65.27336975 -23.19403076 64.06594849 C-21.87327648 60.33774765 -20.56116242 56.60658374 -19.25 52.875 C-17.52923314 47.99626422 -15.80468906 43.11887448 -14.078125 38.2421875 C-13.44795471 36.4602298 -13.44795471 36.4602298 -12.80505371 34.64227295 C-8.68705471 23.03817438 -4.37632385 11.508834 0 0 Z M0 21 C-1.57277973 25.2152474 -3.13917792 29.43278979 -4.69970703 33.65258789 C-5.2314862 35.08780763 -5.7650041 36.52238439 -6.30029297 37.95629883 C-7.06936227 40.01737601 -7.83215096 42.08068392 -8.59375 44.14453125 C-8.83436157 44.78526077 -9.07497314 45.4259903 -9.32287598 46.08613586 C-10.34897405 48.88352941 -11 50.99163868 -11 54 C-3.74 54 3.52 54 11 54 C12.32286869 50.03139394 11.33656467 48.32997386 9.98046875 44.3984375 C9.7618367 43.76136871 9.54320465 43.12429993 9.31794739 42.46792603 C8.85398747 41.12324699 8.38550331 39.78012168 7.9128418 38.43847656 C7.18916928 36.37974884 6.48329705 34.31552618 5.77929688 32.25 C5.32657157 30.94494752 4.87282989 29.64024709 4.41796875 28.3359375 C4.00313232 27.14532715 3.5882959 25.9547168 3.16088867 24.72802734 C2.29603341 21.87805988 2.29603341 21.87805988 0 21 Z " fill="#FF895B" transform="translate(837,957)"/>
<path d="M0 0 C2.97 0 5.94 0 9 0 C11.04462974 5.95732037 13.08563302 11.91587609 15.125 17.875 C15.43490875 18.7800528 15.7448175 19.68510559 16.06411743 20.61758423 C19.73729169 31.35061003 23.3775157 42.09342757 26.94140625 52.86328125 C27.41601288 54.29595337 27.41601288 54.29595337 27.90020752 55.75756836 C29.42884822 60.37459051 30.95192921 64.99334709 32.46728516 69.61474609 C33.02361297 71.29920321 33.58008338 72.98361324 34.13671875 74.66796875 C34.38305557 75.42564041 34.6293924 76.18331207 34.88319397 76.96394348 C37.35828004 84.59354337 37.35828004 84.59354337 42 91 C44.31765729 91.71927295 46.65095874 92.3909893 49 93 C49 93.99 49 94.98 49 96 C37.45 96 25.9 96 14 96 C14 95.01 14 94.02 14 93 C16.97 92.01 19.94 91.02 23 90 C21.77234886 82.38856294 19.55128263 75.33449629 17.03271484 68.07080078 C15 62.18358651 15 62.18358651 15 60 C1.635 60.495 1.635 60.495 -12 61 C-14.39623235 66.39152278 -16.71683485 71.61537346 -18.75 77.125 C-19.17796875 78.26195312 -19.6059375 79.39890625 -20.046875 80.5703125 C-21.05556665 84.19994885 -21.17167955 87.25166305 -21 91 C-17.37 91.66 -13.74 92.32 -10 93 C-10 93.99 -10 94.98 -10 96 C-19.9 96 -29.8 96 -40 96 C-39.67 94.68 -39.34 93.36 -39 92 C-38.236875 91.71125 -37.47375 91.4225 -36.6875 91.125 C-32.22643479 89.25757735 -30.55930264 85.29082095 -28.69291687 80.98336792 C-28.31432022 79.92006256 -27.93572357 78.8567572 -27.5456543 77.76123047 C-27.10807297 76.54490936 -26.67049164 75.32858826 -26.21965027 74.07540894 C-25.7543223 72.75606672 -25.28918359 71.43665774 -24.82421875 70.1171875 C-24.33173664 68.73853045 -23.83854341 67.36012724 -23.34468079 65.98196411 C-22.04629493 62.35248443 -20.75786146 58.71954836 -19.47143555 55.08581543 C-18.18573275 51.45994134 -16.8902049 47.83758352 -15.59570312 44.21484375 C-10.34101481 29.49630974 -5.13682363 14.76011252 0 0 Z M1 21 C-0.55117764 25.05569512 -2.09934867 29.11252124 -3.64477539 33.17041016 C-4.17064786 34.54995488 -4.69733257 35.92919026 -5.22485352 37.30810547 C-5.9840867 39.29313173 -6.74036702 41.27926156 -7.49609375 43.265625 C-7.95169678 44.45961914 -8.4072998 45.65361328 -8.87670898 46.88378906 C-10.09913065 50.11086978 -10.09913065 50.11086978 -11 54 C-3.74 54 3.52 54 11 54 C12.17206778 49.31172889 11.50254173 47.74789525 9.91015625 43.265625 C9.68678085 42.62759949 9.46340546 41.98957397 9.23326111 41.33221436 C8.51960431 39.30114141 7.79131157 37.27567807 7.0625 35.25 C6.57519665 33.87143809 6.08885714 32.49253507 5.60351562 31.11328125 C4.41349004 27.738162 3.2102852 24.3679152 2 21 C1.67 21 1.34 21 1 21 Z " fill="#FF895B" transform="translate(580,957)"/>
<path d="M0 0 C17.79677191 -1.6373534 17.79677191 -1.6373534 22.5703125 1.91015625 C24.1875 4.4375 24.1875 4.4375 25.57421875 7.20703125 C27.16460998 10.32245516 28.97237002 12.22312275 31.5 14.625 C34.20046937 17.22595458 36.77134507 19.82097866 39.1875 22.6875 C43.1555476 27.32463291 47.52204947 31.54811259 51.85693359 35.83740234 C56.10949599 40.06244749 60.14683031 44.40532686 64 49 C64.33 49.33 64.66 49.66 65 50 C65.07418336 44.23424086 65.12861797 38.46875983 65.16479492 32.70263672 C65.17987695 30.74132447 65.20034547 28.78004592 65.22631836 26.81884766 C65.26272731 23.99893882 65.27973216 21.17947608 65.29296875 18.359375 C65.30845261 17.48319519 65.32393646 16.60701538 65.33988953 15.70428467 C65.35901479 10.88187571 65.35901479 10.88187571 63.609375 6.46679688 C61.69614651 4.72306557 60.33944269 4.24710348 57.8125 3.75 C55.9253125 3.37875 55.9253125 3.37875 54 3 C54 2.01 54 1.02 54 0 C63.24 0 72.48 0 82 0 C81.67 1.32 81.34 2.64 81 4 C79.35 4.33 77.7 4.66 76 5 C74.94549751 8.47288591 74.84455209 11.70964847 74.79467773 15.32910156 C74.77473251 16.61012756 74.75478729 17.89115356 74.73423767 19.21099854 C74.71725591 20.60420614 74.70037701 21.99741499 74.68359375 23.390625 C74.66301206 24.81980983 74.64201527 26.24898873 74.62062073 27.67816162 C74.56552551 31.4329345 74.51606112 35.18776118 74.46777344 38.94262695 C74.41746655 42.77690395 74.36182852 46.6111032 74.30664062 50.4453125 C74.19921264 57.96347575 74.09773384 65.48170382 74 73 C67.23388672 73.203125 67.23388672 73.203125 65.12890625 71.375 C64.61199219 70.59125 64.09507813 69.8075 63.5625 69 C59.22570784 63.03053315 54.17422661 58.03149641 48.89868164 52.88671875 C45.00148051 49.06625106 41.33862096 45.14404539 37.77905273 41.00830078 C34.69144042 37.52281994 31.37491258 34.27015413 28.0625 31 C27.37865234 30.32066406 26.69480469 29.64132812 25.99023438 28.94140625 C24.32912705 27.29191506 22.66525667 25.64529865 21 24 C20.90107826 29.6233202 20.82850658 35.24613333 20.78027344 40.87011719 C20.76016548 42.78296735 20.73287493 44.69575611 20.69824219 46.60839844 C20.64968751 49.35887811 20.62702342 52.10854477 20.609375 54.859375 C20.58872986 55.71368103 20.56808472 56.56798706 20.54681396 57.44818115 C20.51891641 62.33913899 20.51891641 62.33913899 22.890625 66.51953125 C25.06987853 68.04904438 26.65295597 68.73059119 29.25 69.25 C31.10625 69.62125 31.10625 69.62125 33 70 C33 70.99 33 71.98 33 73 C23.43 73 13.86 73 4 73 C4.33 71.68 4.66 70.36 5 69 C7.475 68.505 7.475 68.505 10 68 C10.79103478 64.49666613 11.13840644 61.2352549 11.17700195 57.64648438 C11.18983719 56.60190063 11.20267242 55.55731689 11.21589661 54.4810791 C11.22328354 53.3632605 11.23067047 52.24544189 11.23828125 51.09375 C11.246353 49.93629272 11.25442474 48.77883545 11.26274109 47.58630371 C11.2765518 45.14202358 11.28728738 42.69772441 11.29516602 40.25341797 C11.31243706 36.51362954 11.35635823 32.77471216 11.40039062 29.03515625 C11.41051313 26.65886065 11.41903061 24.28255757 11.42578125 21.90625 C11.44328934 20.7884314 11.46079742 19.67061279 11.47883606 18.5189209 C11.48559036 12.40468113 11.48559036 12.40468113 9.20776367 6.83789062 C6.33339935 4.44507689 3.62426104 3.7666706 0 3 C0 2.01 0 1.02 0 0 Z " fill="#FF895B" transform="translate(1561,980)"/>
<path d="M0 0 C17.61488708 -1.79923489 17.61488708 -1.79923489 22.6875 2.02734375 C24.5 4.75 24.5 4.75 26.15234375 7.78515625 C28.32910584 11.57263025 30.92021812 14.1998035 34.0625 17.1875 C37.29110622 20.31907972 40.47458407 23.43121501 43.375 26.875 C47.31326979 31.51688126 51.68212143 35.73266796 56.02685547 39.98974609 C56.60967285 40.56418457 57.19249023 41.13862305 57.79296875 41.73046875 C58.3139917 42.23989014 58.83501465 42.74931152 59.37182617 43.27416992 C61.3880822 45.41135899 63.18811213 47.68862004 65 50 C65.07418336 44.23424086 65.12861797 38.46875983 65.16479492 32.70263672 C65.17987695 30.74132447 65.20034547 28.78004592 65.22631836 26.81884766 C65.26272731 23.99893882 65.27973216 21.17947608 65.29296875 18.359375 C65.30845261 17.48319519 65.32393646 16.60701538 65.33988953 15.70428467 C65.35901479 10.88187571 65.35901479 10.88187571 63.609375 6.46679688 C61.69614651 4.72306557 60.33944269 4.24710348 57.8125 3.75 C55.9253125 3.37875 55.9253125 3.37875 54 3 C54 2.01 54 1.02 54 0 C63.24 0 72.48 0 82 0 C81.67 1.32 81.34 2.64 81 4 C79.35 4.33 77.7 4.66 76 5 C75.11260752 8.83082167 74.84978714 12.42231693 74.79467773 16.35083008 C74.77473251 17.6117598 74.75478729 18.87268951 74.73423767 20.17182922 C74.71725732 21.53772867 74.70037837 22.90362938 74.68359375 24.26953125 C74.66300526 25.67486659 74.6420083 27.080196 74.62062073 28.48551941 C74.56559565 32.17287373 74.51610067 35.86028212 74.46777344 39.54772949 C74.41741496 43.31507136 74.361804 47.08233534 74.30664062 50.84960938 C74.19929859 58.23300683 74.09780112 65.61646934 74 73 C67.24169922 73.2109375 67.24169922 73.2109375 65.06640625 71.3125 C64.32197266 70.1678125 64.32197266 70.1678125 63.5625 69 C60.73833424 64.96276975 57.75437763 61.60491495 54.1875 58.21484375 C52.36801043 56.37261056 50.70542614 54.50259848 49.02734375 52.53515625 C43.84423879 46.56247549 38.17284171 41.06649152 32.5625 35.5 C31.4379167 34.38044368 30.31356595 33.26065371 29.18945312 32.140625 C26.46230656 29.42438466 23.73204093 26.71131708 21 24 C20.90107826 29.6233202 20.82850658 35.24613333 20.78027344 40.87011719 C20.76016548 42.78296735 20.73287493 44.69575611 20.69824219 46.60839844 C20.64968751 49.35887811 20.62702342 52.10854477 20.609375 54.859375 C20.58872986 55.71368103 20.56808472 56.56798706 20.54681396 57.44818115 C20.51891641 62.33913899 20.51891641 62.33913899 22.890625 66.51953125 C25.06987853 68.04904438 26.65295597 68.73059119 29.25 69.25 C31.10625 69.62125 31.10625 69.62125 33 70 C33 70.99 33 71.98 33 73 C23.43 73 13.86 73 4 73 C4.33 71.68 4.66 70.36 5 69 C7.475 68.505 7.475 68.505 10 68 C10.93914705 64.81975292 11.12658787 61.96264621 11.12939453 58.65234375 C11.13254669 57.58443604 11.13569885 56.51652832 11.13894653 55.41625977 C11.1369223 54.26826904 11.13489807 53.12027832 11.1328125 51.9375 C11.13376923 50.75406006 11.13472595 49.57062012 11.13571167 48.35131836 C11.13639202 45.84977159 11.13454783 43.34822306 11.13037109 40.84667969 C11.12502085 37.01493367 11.13032103 33.18330487 11.13671875 29.3515625 C11.13605794 26.92187474 11.13477673 24.49218705 11.1328125 22.0625 C11.13584885 20.34051392 11.13584885 20.34051392 11.13894653 18.58374023 C11.13579437 17.51583252 11.13264221 16.4479248 11.12939453 15.34765625 C11.12859894 14.40929932 11.12780334 13.47094238 11.12698364 12.50415039 C11.0078587 10.15497556 10.80958909 8.20810472 10 6 C7.68684675 4.85706445 7.68684675 4.85706445 4.9375 4.25 C4.01839844 4.00765625 3.09929688 3.7653125 2.15234375 3.515625 C1.44207031 3.34546875 0.73179687 3.1753125 0 3 C0 2.01 0 1.02 0 0 Z " fill="#FF895B" transform="translate(890,980)"/>
<path d="M0 0 C6.91922282 -0.10209629 13.83824869 -0.17175562 20.75805664 -0.21972656 C23.10806538 -0.23974175 25.45802496 -0.26696244 27.80786133 -0.30175781 C31.20145867 -0.35072124 34.59439296 -0.37307059 37.98828125 -0.390625 C39.02519608 -0.41127014 40.0621109 -0.43191528 41.13044739 -0.45318604 C51.5010224 -0.45631859 61.11977587 2.43062472 68.7734375 9.6796875 C75.5084329 16.75569532 78.19097816 23.61589094 78.5 33.375 C78.10609626 45.9799198 73.98836714 54.78568104 65.30859375 63.74609375 C59.0768487 69.54407464 51.05825267 73.13809843 42.50683594 73.11352539 C41.18591949 73.11341209 41.18591949 73.11341209 39.83831787 73.11329651 C38.89651672 73.10813522 37.95471558 73.10297394 36.984375 73.09765625 C35.52792572 73.09553383 35.52792572 73.09553383 34.04205322 73.09336853 C30.94467065 73.08777663 27.84736068 73.07522559 24.75 73.0625 C22.64843854 73.05748395 20.54687596 73.05292123 18.4453125 73.04882812 C13.29684708 73.03780985 8.14843584 73.02055074 3 73 C3 71.68 3 70.36 3 69 C4.7015625 68.4121875 4.7015625 68.4121875 6.4375 67.8125 C7.613125 67.214375 8.78875 66.61625 10 66 C11.02785777 62.68783094 11.12613151 59.47993577 11.12939453 56.02954102 C11.13254669 55.06826797 11.13569885 54.10699493 11.13894653 53.11659241 C11.1369223 52.08940598 11.13489807 51.06221954 11.1328125 50.00390625 C11.13376923 48.93760483 11.13472595 47.87130341 11.13571167 46.77268982 C11.13639121 44.52090394 11.13455268 42.26911608 11.13037109 40.01733398 C11.12502498 36.57856828 11.13032105 33.1399335 11.13671875 29.70117188 C11.13605783 27.51041638 11.13477637 25.31966097 11.1328125 23.12890625 C11.13483673 22.10374405 11.13686096 21.07858185 11.13894653 20.02235413 C11.12330171 15.23571167 11.00402488 10.70555653 10 6 C6.7 5.34 3.4 4.68 0 4 C0 2.68 0 1.36 0 0 Z M27 7 C22.90321588 11.67310118 23.56697415 17.16281701 23.6015625 23.03125 C23.59869232 24.0999231 23.59582214 25.16859619 23.59286499 26.26965332 C23.59082652 28.52564017 23.59634114 30.78164477 23.60888672 33.03759766 C23.62494279 36.48770731 23.60902996 39.93664547 23.58984375 43.38671875 C23.59182622 45.58073175 23.59566997 47.77474402 23.6015625 49.96875 C23.59548981 50.99907349 23.58941711 52.02939697 23.5831604 53.09094238 C23.56906778 60.07998052 23.56906778 60.07998052 27 66 C33.59417504 68.19805835 41.74829565 67.95905539 48.12890625 65.09375 C55.60795915 60.72186104 59.97091177 55.08623553 63 47 C65.59267543 36.82873487 64.73603939 26.34703483 60 17 C56.30990964 11.13926825 51.41394675 8.2744492 45 6 C38.7363032 4.67680479 32.88757374 4.3015287 27 7 Z " fill="#FF895B" transform="translate(983,980)"/>
<path d="M0 0 C11.22 0 22.44 0 34 0 C34 0.99 34 1.98 34 3 C31.36 3.66 28.72 4.32 26 5 C26.49550524 12.60047702 29.02048053 19.16077522 31.69140625 26.25 C32.16155455 27.51624109 32.63093812 28.78276637 33.09959412 30.04956055 C34.3266236 33.36002487 35.56390823 36.66656129 36.8034668 39.97235107 C38.06993145 43.35553072 39.32652344 46.74237219 40.58398438 50.12890625 C43.04641235 56.75619333 45.51970757 63.37937578 48 70 C53.00971749 57.60160751 57.92626759 45.17538182 62.58496094 32.64038086 C63.20436134 30.97999776 63.8288632 29.32151033 64.45800781 27.66479492 C65.38937051 25.21152469 66.30565804 22.75308848 67.21875 20.29296875 C67.49988647 19.56063522 67.78102295 18.8283017 68.07067871 18.07377625 C69.74179341 13.50502881 70.28361939 9.86494889 70 5 C65.05 4.01 65.05 4.01 60 3 C60 2.01 60 1.02 60 0 C69.9 0 79.8 0 90 0 C90 0.99 90 1.98 90 3 C89.0925 3.391875 88.185 3.78375 87.25 4.1875 C81.50950417 7.38893037 79.4434392 11.77812076 77.22265625 17.80297852 C76.85102859 18.79928535 76.85102859 18.79928535 76.47189331 19.8157196 C75.65967898 22.0002059 74.86098503 24.18936827 74.0625 26.37890625 C73.49564166 27.91271409 72.92800148 29.44623318 72.35961914 30.97947693 C70.86654948 35.01429502 69.38516225 39.05330979 67.90588379 43.09320068 C66.70673622 46.36189177 65.4992165 49.6274573 64.29121399 52.89288425 C62.83698159 56.82462165 61.38678747 60.75784382 59.9375 64.69140625 C59.66632355 65.42695803 59.39514709 66.1625098 59.11575317 66.92035103 C55.93224356 75.56702433 52.84635805 84.2350503 50 93 C46.7 93 43.4 93 40 93 C39.81276367 92.26273682 39.62552734 91.52547363 39.43261719 90.76586914 C36.18596747 78.69473958 31.68465876 67.11284242 27.25 55.4375 C26.46824541 53.36672688 25.68699264 51.29576424 24.90625 49.22460938 C22.99003921 44.14570842 21.06518535 39.07013981 19.13696289 33.99578857 C17.99105764 30.97643772 16.84963816 27.95542024 15.70898438 24.93408203 C14.98836613 23.03024131 14.26766668 21.12643132 13.546875 19.22265625 C13.21778137 18.34886826 12.88868774 17.47508026 12.54962158 16.57481384 C12.08951691 15.36227684 12.08951691 15.36227684 11.62011719 14.12524414 C11.35430847 13.42194473 11.08849976 12.71864532 10.81463623 11.99403381 C9.28435991 7.76569342 9.28435991 7.76569342 6.0546875 4.953125 C5.33539062 4.72109375 4.61609375 4.4890625 3.875 4.25 C3.15054687 4.00765625 2.42609375 3.7653125 1.6796875 3.515625 C1.12539062 3.34546875 0.57109375 3.1753125 0 3 C0 2.01 0 1.02 0 0 Z " fill="#FF895B" transform="translate(1424,961)"/>
<path d="M0 0 C10.89 0 21.78 0 33 0 C33 0.99 33 1.98 33 3 C30.36 3.99 27.72 4.98 25 6 C26.39804123 13.09451027 28.53485239 19.65470736 31.0625 26.421875 C31.45445557 27.48488831 31.84641113 28.54790161 32.25024414 29.64312744 C33.49475243 33.01411462 34.74732192 36.38204142 36 39.75 C36.84166217 42.02715297 37.68281303 44.304495 38.5234375 46.58203125 C40.06337934 50.7481978 41.60458864 54.91387753 43.15234375 59.07714844 C43.6162854 60.32549469 43.6162854 60.32549469 44.08959961 61.59906006 C45.02981333 64.07862477 46.00781213 66.54082279 47 69 C49.28825369 66.71174631 49.86016185 65.06149845 50.95532227 62.03125 C51.3323378 60.99677734 51.70935333 59.96230469 52.09779358 58.89648438 C52.49993576 57.77564453 52.90207794 56.65480469 53.31640625 55.5 C53.73292953 54.35337891 54.14945282 53.20675781 54.57859802 52.02539062 C55.9118392 48.35214677 57.23741131 44.67619176 58.5625 41 C59.89266199 37.32436938 61.22437628 33.64930693 62.55711365 29.97460938 C63.38696295 27.68490945 64.21501995 25.39455903 65.04115295 23.10351562 C65.41501633 22.06904297 65.7888797 21.03457031 66.17407227 19.96875 C66.5033522 19.05544922 66.83263214 18.14214844 67.17189026 17.20117188 C68 15 68 15 69 13 C69.04022391 10.6670134 69.04320247 8.33293334 69 6 C65.7 5.01 62.4 4.02 59 3 C59 2.01 59 1.02 59 0 C68.9 0 78.8 0 89 0 C88.67 1.32 88.34 2.64 88 4 C87.0925 4.37125 86.185 4.7425 85.25 5.125 C77.53071504 9.57843363 75.0618529 21.78213236 72.1640625 29.77734375 C71.72162201 30.98330704 71.27918152 32.18927032 70.82333374 33.43177795 C69.65368615 36.62004693 68.49099435 39.81080697 67.32989502 43.00219727 C66.16934362 46.18851329 65.0024354 49.37249787 63.8359375 52.55664062 C62.04283924 57.45314998 60.25309603 62.3508738 58.46582031 67.24951172 C55.33021563 75.84026571 52.16847688 84.42132546 49 93 C46.03 93 43.06 93 40 93 C39.77151367 92.33846924 39.54302734 91.67693848 39.30761719 90.99536133 C33.08055735 73.04668861 26.53560046 55.2193774 19.85852051 37.43344116 C18.95288007 35.01958673 18.0494774 32.60489153 17.14831543 30.18936157 C15.8660284 26.75517735 14.5749239 23.32443964 13.28125 19.89453125 C12.89410828 18.85409668 12.50696655 17.81366211 12.10809326 16.74169922 C11.56055389 15.29911743 11.56055389 15.29911743 11.00195312 13.82739258 C10.52876648 12.56866081 10.52876648 12.56866081 10.04602051 11.28450012 C8.23083903 7.32015881 6.93166658 5.36535944 2.8125 3.75 C1.884375 3.5025 0.95625 3.255 0 3 C0 2.01 0 1.02 0 0 Z " fill="#FF895B" transform="translate(1215,961)"/>
<path d="M0 0 C19.14 0 38.28 0 58 0 C58 5.61 58 11.22 58 17 C56.35 17 54.7 17 53 17 C52.34 14.36 51.68 11.72 51 9 C45.37905593 7.08359759 40.47087173 6.75219194 34.5625 6.875 C31.736875 6.91625 28.91125 6.9575 26 7 C25.67 14.59 25.34 22.18 25 30 C27.866875 29.87625 30.73375 29.7525 33.6875 29.625 C34.58170654 29.59100098 35.47591309 29.55700195 36.3972168 29.52197266 C40.59267847 29.314011 44.25724611 29.10529906 48 27 C49.36078035 24.47627099 49.36078035 24.47627099 50 22 C51.65 22 53.3 22 55 22 C55 28.93 55 35.86 55 43 C53.35 43 51.7 43 50 43 C49.71125 42.195625 49.4225 41.39125 49.125 40.5625 C48.26737432 37.8673532 48.26737432 37.8673532 46 37 C44.64842019 36.90534655 43.29238852 36.86927838 41.9375 36.8671875 C41.14085937 36.86589844 40.34421875 36.86460937 39.5234375 36.86328125 C38.69070313 36.86714844 37.85796875 36.87101563 37 36.875 C35.75089844 36.86919922 35.75089844 36.86919922 34.4765625 36.86328125 C33.67992187 36.86457031 32.88328125 36.86585938 32.0625 36.8671875 C30.96615234 36.86887939 30.96615234 36.86887939 29.84765625 36.87060547 C27.90433947 36.88798205 27.90433947 36.88798205 26 38 C25.91305958 42.10403363 25.85962851 46.20783129 25.8125 50.3125 C25.78736328 51.47974609 25.76222656 52.64699219 25.73632812 53.84960938 C25.72666016 54.96787109 25.71699219 56.08613281 25.70703125 57.23828125 C25.6913208 58.26993408 25.67561035 59.30158691 25.65942383 60.36450195 C25.79937985 62.99906697 25.79937985 62.99906697 27.23974609 64.83520508 C29.45590329 66.30168025 30.80922687 66.3870093 33.45703125 66.3984375 C34.75543945 66.40423828 34.75543945 66.40423828 36.08007812 66.41015625 C36.98177734 66.39855469 37.88347656 66.38695312 38.8125 66.375 C39.70259766 66.38660156 40.59269531 66.39820313 41.50976562 66.41015625 C46.74119646 66.38688821 50.50639865 65.96535628 55 63 C58.01555347 59.23055816 59.67827054 55.62605312 61 51 C62.65 51 64.3 51 66 51 C65.67 58.26 65.34 65.52 65 73 C44.87 73 24.74 73 4 73 C4 71.68 4 70.36 4 69 C5.4540625 68.5978125 5.4540625 68.5978125 6.9375 68.1875 C8.4534375 67.5996875 8.4534375 67.5996875 10 67 C11.0181159 63.94565229 11.13258439 61.85599617 11.14526367 58.65820312 C11.15164352 57.56697144 11.15802338 56.47573975 11.16459656 55.35144043 C11.16626579 53.58419617 11.16626579 53.58419617 11.16796875 51.78125 C11.17296135 49.96711609 11.17296135 49.96711609 11.17805481 48.11633301 C11.18312064 45.55753968 11.18546324 42.99873974 11.18530273 40.43994141 C11.18749117 36.51584056 11.20565617 32.5920199 11.22460938 28.66796875 C11.22754291 26.1848968 11.22952797 23.70182351 11.23046875 21.21875 C11.23765427 20.04058716 11.24483978 18.86242432 11.25224304 17.64855957 C11.24916641 16.55732788 11.24608978 15.46609619 11.24291992 14.34179688 C11.24434494 13.38043823 11.24576996 12.41907959 11.24723816 11.42858887 C11.16482204 8.74069014 11.16482204 8.74069014 9 6 C6.81494871 5.20562077 6.81494871 5.20562077 4.375 4.8125 C3.14910156 4.57466797 3.14910156 4.57466797 1.8984375 4.33203125 C1.27195312 4.22246094 0.64546875 4.11289062 0 4 C0 2.68 0 1.36 0 0 Z " fill="#FF895A" transform="translate(1151,980)"/>
<path d="M0 0 C2.97 0 5.94 0 9 0 C9.19408447 0.60320068 9.38816895 1.20640137 9.58813477 1.82788086 C16.15102943 22.10994818 23.43331236 42.10825072 30.82969666 62.09889221 C31.92271686 65.05559975 33.00308435 68.00925305 34 71 C37.51190809 72.22969878 37.51190809 72.22969878 41 73 C41 73.99 41 74.98 41 76 C30.77 76 20.54 76 10 76 C10 75.01 10 74.02 10 73 C13.465 72.01 13.465 72.01 17 71 C16.5003731 63.50559651 14.56235522 57.04349737 12 50 C8.56294295 49.85494825 5.12666967 49.76601986 1.6875 49.6875 C0.22280273 49.6246582 0.22280273 49.6246582 -1.27148438 49.56054688 C-3.93060119 49.51485758 -6.38064568 49.53621032 -9 50 C-11.20642595 52.06799284 -11.20642595 52.06799284 -12 55 C-12.39703125 55.90878906 -12.7940625 56.81757812 -13.203125 57.75390625 C-13.54859375 58.68074219 -13.8940625 59.60757812 -14.25 60.5625 C-14.60578125 61.49191406 -14.9615625 62.42132812 -15.328125 63.37890625 C-16.03919002 66.15288666 -16.29258408 67.44305419 -15 70 C-12.91965706 71.1375213 -12.91965706 71.1375213 -10.4375 71.75 C-9.61121094 71.99234375 -8.78492188 72.2346875 -7.93359375 72.484375 C-7.29550781 72.65453125 -6.65742187 72.8246875 -6 73 C-6 73.99 -6 74.98 -6 76 C-14.91 76 -23.82 76 -33 76 C-32.67 74.68 -32.34 73.36 -32 72 C-30.67193036 71.32290824 -29.3380992 70.65704851 -28 70 C-26.59459079 67.99339322 -26.59459079 67.99339322 -25.53149414 65.56591797 C-25.10925568 64.66645447 -24.68701721 63.76699097 -24.25198364 62.840271 C-22.22771263 58.24797598 -20.33039551 53.61647863 -18.49609375 48.9453125 C-18.09093033 47.9225119 -17.68576691 46.8997113 -17.26832581 45.84591675 C-16.41832865 43.69712705 -15.5705329 41.54746533 -14.72485352 39.39697266 C-13.44285437 36.13860881 -12.15263901 32.88358937 -10.86132812 29.62890625 C-10.03075837 27.5262358 -9.20066456 25.42337727 -8.37109375 23.3203125 C-7.99182236 22.36367706 -7.61255096 21.40704163 -7.2217865 20.42141724 C-4.58003545 13.68690564 -2.22897712 6.88171283 0 0 Z M1 20 C-2.61197308 27.52000953 -5.47410712 35.048115 -8 43 C-2.72 43 2.56 43 8 43 C9.03292721 38.86829116 8.999978 38.17538148 7.56640625 34.453125 C7.24736328 33.60878906 6.92832031 32.76445313 6.59960938 31.89453125 C6.25736328 31.02183594 5.91511719 30.14914062 5.5625 29.25 C5.22412109 28.36183594 4.88574219 27.47367188 4.53710938 26.55859375 C3.70109106 24.36846127 2.85514209 22.18272086 2 20 C1.67 20 1.34 20 1 20 Z " fill="#FF895B" transform="translate(1325,977)"/>
<path d="M0 0 C10.89 0 21.78 0 33 0 C33 0.99 33 1.98 33 3 C31.865625 3.4125 30.73125 3.825 29.5625 4.25 C25.95607991 5.52732597 25.95607991 5.52732597 25.28543091 7.79335022 C24.96908791 10.2389796 24.87283059 12.58947973 24.87060547 15.05639648 C24.86745331 16.06101425 24.86430115 17.06563202 24.86105347 18.10069275 C24.8630777 19.17992508 24.86510193 20.25915741 24.8671875 21.37109375 C24.86623077 22.48557388 24.86527405 23.60005402 24.86428833 24.74830627 C24.86360806 27.10442155 24.86545169 29.46053872 24.86962891 31.81665039 C24.87497423 35.42012758 24.8696813 39.02347984 24.86328125 42.62695312 C24.86394216 44.91666694 24.86522358 47.20638068 24.8671875 49.49609375 C24.86516327 50.57330185 24.86313904 51.65050995 24.86105347 52.76036072 C24.86420563 53.76813065 24.86735779 54.77590057 24.87060547 55.81420898 C24.87140106 56.69705063 24.87219666 57.57989227 24.87301636 58.48948669 C25.00398783 61.07884096 25.42897247 63.47416231 26 66 C29.54138618 66.11681812 33.0822724 66.187455 36.625 66.25 C37.62402344 66.28351563 38.62304688 66.31703125 39.65234375 66.3515625 C45.7785705 66.43270458 49.37784062 66.16370129 54 62 C56.4686532 58.08420527 57.45515677 54.57668311 58 50 C59.65 50 61.3 50 63 50 C63.02747059 52.14575863 63.04660463 54.29162441 63.0625 56.4375 C63.07410156 57.63246094 63.08570313 58.82742188 63.09765625 60.05859375 C62.99042229 64.38655648 62.47809021 68.69718809 62 73 C42.53 73 23.06 73 3 73 C3 71.68 3 70.36 3 69 C4.7015625 68.4121875 4.7015625 68.4121875 6.4375 67.8125 C7.613125 67.214375 8.78875 66.61625 10 66 C11.03929222 62.65932911 11.12617099 59.41837281 11.12939453 55.93774414 C11.13254669 54.95645035 11.13569885 53.97515656 11.13894653 52.96412659 C11.1369223 51.91506638 11.13489807 50.86600616 11.1328125 49.78515625 C11.13376923 48.69665878 11.13472595 47.60816132 11.13571167 46.48667908 C11.13639127 44.18781476 11.1345523 41.88894851 11.13037109 39.59008789 C11.12502496 36.07889473 11.1303209 32.56782979 11.13671875 29.05664062 C11.13605783 26.82031222 11.13477638 24.58398389 11.1328125 22.34765625 C11.13584885 20.77710228 11.13584885 20.77710228 11.13894653 19.17481995 C11.12346046 14.33839136 11.0203023 9.75347393 10 5 C6.7 4.34 3.4 3.68 0 3 C0 2.01 0 1.02 0 0 Z " fill="#FF895A" transform="translate(1371,980)"/>
<path d="M0 0 C10.89 0 21.78 0 33 0 C33 0.99 33 1.98 33 3 C31.865625 3.391875 30.73125 3.78375 29.5625 4.1875 C28.386875 4.785625 27.21125 5.38375 26 6 C24.94925818 9.36903772 24.87379101 12.64331901 24.87060547 16.15405273 C24.86745331 17.15536728 24.86430115 18.15668182 24.86105347 19.18833923 C24.8630777 20.25927322 24.86510193 21.33020721 24.8671875 22.43359375 C24.86623077 23.54428726 24.86527405 24.65498077 24.86428833 25.79933167 C24.86360867 28.14527442 24.86544806 30.49121907 24.86962891 32.8371582 C24.87497505 36.42077886 24.86967925 40.00427389 24.86328125 43.58789062 C24.86394217 45.86979194 24.86522361 48.15169318 24.8671875 50.43359375 C24.86516327 51.50250351 24.86313904 52.57141327 24.86105347 53.67271423 C24.87638644 58.55871572 24.96327635 63.19884731 26 68 C29.3 68.66 32.6 69.32 36 70 C36 70.99 36 71.98 36 73 C25.11 73 14.22 73 3 73 C3 72.01 3 71.02 3 70 C4.7015625 69.4121875 4.7015625 69.4121875 6.4375 68.8125 C7.613125 68.214375 8.78875 67.61625 10 67 C11.05074182 63.63096228 11.12620899 60.35668099 11.12939453 56.84594727 C11.13254669 55.84463272 11.13569885 54.84331818 11.13894653 53.81166077 C11.1369223 52.74072678 11.13489807 51.66979279 11.1328125 50.56640625 C11.13376923 49.45571274 11.13472595 48.34501923 11.13571167 47.20066833 C11.13639133 44.85472558 11.13455194 42.50878093 11.13037109 40.1628418 C11.12502495 36.57922114 11.13032075 32.99572611 11.13671875 29.41210938 C11.13605783 27.13020806 11.13477639 24.84830682 11.1328125 22.56640625 C11.13483673 21.49749649 11.13686096 20.42858673 11.13894653 19.32728577 C11.12361356 14.44128428 11.03672365 9.80115269 10 5 C6.7 4.34 3.4 3.68 0 3 C0 2.01 0 1.02 0 0 Z " fill="#FF895A" transform="translate(1514,980)"/>
</svg>
