<svg width="257" height="55" viewBox="0 0 257 55" fill="none" xmlns="http://www.w3.org/2000/svg">
<path d="M41.1015 24.5135C40.4067 25.2126 39.8746 26.0563 39.5432 26.9843C39.2117 27.9125 39.0891 28.9023 39.1838 29.8833L39.1508 29.8503C39.2484 31.0052 39.0925 32.1671 38.6945 33.2556C38.2965 34.3438 37.6658 35.3322 36.8465 36.1517C36.027 36.971 35.0387 37.6019 33.9502 37.9997C32.862 38.3977 31.6998 38.5535 30.5452 38.456L30.5782 38.489C29.1969 38.3605 27.8097 38.661 26.6053 39.3498C25.4012 40.0385 24.4387 41.0819 23.8493 42.3377C23.2599 43.5936 23.072 45.0005 23.3114 46.367C23.551 47.7334 24.2061 48.9927 25.1874 49.9732C26.1688 50.9537 27.4287 51.6076 28.7953 51.8458C30.162 52.0841 31.5687 51.8949 32.824 51.3044C34.0793 50.7137 35.1217 49.7504 35.8094 48.5456C36.4971 47.3407 36.7965 45.9532 36.6667 44.572L36.7015 44.605C36.604 43.4504 36.7596 42.2882 37.1576 41.1998C37.5557 40.1115 38.1865 39.1232 39.0058 38.3037C39.8253 37.4843 40.8137 36.8535 41.9019 36.4557C42.9904 36.0576 44.1524 35.9018 45.3072 35.9993L45.2723 35.9663C46.4006 36.0677 47.5363 35.8827 48.5742 35.4284C49.6118 34.9741 50.5182 34.2652 51.209 33.3674C51.8998 32.4696 52.353 31.4118 52.5261 30.2924C52.6994 29.1727 52.5872 28.0276 52.2 26.9628C51.8128 25.8982 51.163 24.9486 50.3111 24.2018C49.4591 23.4551 48.4325 22.9356 47.3262 22.6914C46.22 22.4472 45.0699 22.486 43.9828 22.8045C42.8956 23.1231 41.9065 23.7109 41.107 24.5135H41.1015Z" fill="#611BE8"/>
<path d="M27.5767 34.166L27.5419 34.133C28.5233 34.2318 29.5144 34.1113 30.4437 33.7802C31.3728 33.4491 32.2169 32.9158 32.9146 32.2186C33.6122 31.5214 34.1465 30.6777 34.4781 29.7487C34.8099 28.8198 34.9311 27.8289 34.833 26.8473L34.8679 26.8803C34.7703 25.7255 34.9262 24.5635 35.324 23.4751C35.722 22.3868 36.3529 21.3984 37.1722 20.5789C37.9917 19.7596 38.98 19.1288 40.0683 18.7309C41.1568 18.3328 42.3187 18.1771 43.4735 18.2746L43.4387 18.2416C44.8201 18.3714 46.2078 18.0718 47.4127 17.3838C48.6177 16.6958 49.5809 15.6529 50.1713 14.3973C50.7616 13.1417 50.9502 11.7346 50.7115 10.3678C50.4728 9.00105 49.8183 7.74122 48.8371 6.76013C47.8561 5.77906 46.5963 5.12449 45.2295 4.88575C43.8628 4.64699 42.4557 4.83566 41.2 5.42603C39.9444 6.01638 38.9016 6.97971 38.2135 8.18459C37.5255 9.38946 37.2259 10.7772 37.3557 12.1586L37.3227 12.1238C37.4204 13.2786 37.265 14.4408 36.8671 15.5293C36.4693 16.6178 35.8384 17.6063 35.0191 18.4259C34.1996 19.2452 33.2111 19.876 32.1226 20.2739C31.034 20.6717 29.8719 20.8272 28.717 20.7295L28.75 20.7643C27.7687 20.6655 26.7774 20.7859 25.8482 21.117C24.9191 21.4479 24.075 21.9814 23.3773 22.6787C22.6795 23.3759 22.1455 24.2196 21.8136 25.1485C21.482 26.0775 21.3608 27.0684 21.4589 28.05L21.4259 28.017C21.523 29.1716 21.367 30.3336 20.969 31.4218C20.5708 32.5099 19.9401 33.4983 19.1208 34.3176C18.3014 35.1369 17.3132 35.7676 16.225 36.1658C15.1368 36.5638 13.9749 36.7198 12.8202 36.6226L12.8532 36.6556C11.4718 36.5258 10.0841 36.8254 8.87917 37.5134C7.6743 38.2015 6.71098 39.2443 6.12063 40.4999C5.53026 41.7556 5.34157 43.1627 5.58033 44.5294C5.81908 45.8962 6.47365 47.156 7.45473 48.1371C8.43582 49.1182 9.69565 49.7728 11.0624 50.0114C12.4292 50.2501 13.8363 50.0615 15.0919 49.4712C16.3475 48.8808 17.3904 47.9176 18.0784 46.7127C18.7664 45.5077 19.066 44.12 18.9362 42.7386L18.971 42.7716C18.8735 41.6168 19.0293 40.4548 19.4274 39.3664C19.8252 38.2781 20.456 37.2898 21.2754 36.4703C22.0949 35.651 23.0832 35.0201 24.1715 34.6223C25.2599 34.2242 26.4219 34.0684 27.5767 34.166Z" fill="#F8B05C"/>
<path d="M15.2897 30.4864C15.9846 29.7876 16.5166 28.9439 16.8478 28.0156C17.179 27.0874 17.3011 26.0974 17.2056 25.1166L17.2404 25.1496C17.1429 23.9946 17.2986 22.8321 17.6968 21.7434C18.095 20.6548 18.7261 19.6663 19.546 18.8468C20.3659 18.0273 21.3546 17.3967 22.4434 16.9989C23.5322 16.6012 24.6947 16.4459 25.8497 16.5439L25.8149 16.5109C27.1958 16.6403 28.5831 16.3406 29.7874 15.6526C30.9917 14.9647 31.9544 13.922 32.5445 12.6669C33.1345 11.4116 33.323 10.005 33.0843 8.63876C32.8456 7.27251 32.1911 6.01315 31.2104 5.03243C30.2298 4.05171 28.9703 3.39735 27.6041 3.15862C26.2379 2.91986 24.8311 3.10836 23.576 3.69837C22.3208 4.28837 21.2781 5.25118 20.5903 6.4555C19.9022 7.65982 19.6025 9.04703 19.7319 10.4279L19.6989 10.3949C19.7964 11.5497 19.6406 12.7118 19.2426 13.8001C18.8446 14.8884 18.2139 15.8768 17.3945 16.6962C16.5751 17.5157 15.5867 18.1464 14.4984 18.5443C13.41 18.9423 12.248 19.0981 11.0932 19.0006L11.1262 19.0336C9.99795 18.9324 8.86236 19.1177 7.82473 19.5722C6.7871 20.0267 5.88098 20.7358 5.19034 21.6338C4.49971 22.5316 4.04691 23.5894 3.87388 24.7089C3.70087 25.8285 3.81323 26.9736 4.20056 28.038C4.58789 29.1026 5.23768 30.0521 6.08968 30.7986C6.94169 31.5454 7.96836 32.0647 9.07455 32.3089C10.1807 32.553 11.3307 32.5139 12.4178 32.1955C13.5049 31.8768 14.4939 31.2891 15.2934 30.4864H15.2897Z" fill="#611BE8"/>
<path d="M72.0809 12.2009H77.5259V38.6981H72.0809V12.2009Z" fill="#394149"/>
<path d="M80.6096 29.6248C80.6021 27.7207 81.1598 25.8569 82.2122 24.27C83.2645 22.683 84.7641 21.4441 86.5212 20.7102C88.2783 19.9761 90.2135 19.7801 92.0821 20.147C93.9506 20.5138 95.6683 21.4268 97.0174 22.7707C98.3666 24.1143 99.2865 25.8283 99.6609 27.6954C100.035 29.5624 99.847 31.4986 99.1201 33.2586C98.3932 35.0184 97.1602 36.5232 95.5775 37.5818C93.9946 38.6406 92.1334 39.2058 90.2291 39.2058C88.9652 39.2203 87.7111 38.9825 86.5399 38.5065C85.3688 38.0306 84.3043 37.3261 83.4088 36.4341C82.513 35.542 81.8042 34.4804 81.3237 33.3112C80.843 32.1421 80.6003 30.8889 80.6096 29.6248ZM94.4036 29.6248C94.3809 28.804 94.1167 28.0081 93.6443 27.3366C93.1716 26.6652 92.5116 26.1479 91.7468 25.8496C90.9817 25.5511 90.1459 25.4847 89.3434 25.6589C88.541 25.8331 87.8077 26.2397 87.2351 26.8284C86.6628 27.4169 86.2763 28.1612 86.1247 28.9683C85.9729 29.7751 86.0622 30.6089 86.3817 31.3653C86.7013 32.1218 87.2366 32.7671 87.9208 33.2209C88.6052 33.6746 89.4082 33.9166 90.2291 33.9166C90.7914 33.9316 91.3508 33.8299 91.872 33.618C92.393 33.406 92.8646 33.0885 93.2567 32.6853C93.6489 32.282 93.9534 31.8019 94.1506 31.2751C94.3481 30.7484 94.4342 30.1865 94.4036 29.6248Z" fill="#394149"/>
<path d="M121.55 20.5499V37.7832C121.55 43.8809 116.794 46.4586 111.967 46.4586C110.267 46.5858 108.566 46.2424 107.048 45.4664C105.531 44.6901 104.257 43.5111 103.365 42.0586L108.011 39.3727C108.385 40.1299 108.982 40.7545 109.722 41.1632C110.461 41.5716 111.308 41.7447 112.148 41.6589C112.686 41.7333 113.233 41.686 113.749 41.5205C114.265 41.3549 114.738 41.0753 115.132 40.7026C115.526 40.3297 115.831 39.8732 116.024 39.3665C116.218 38.8599 116.295 38.3164 116.25 37.7759V36.1167C115.612 36.8968 114.801 37.5167 113.88 37.9264C112.96 38.3362 111.956 38.5244 110.949 38.4762C108.555 38.4007 106.283 37.3964 104.616 35.6756C102.949 33.955 102.017 31.6531 102.017 29.2573C102.017 26.8615 102.949 24.5596 104.616 22.839C106.283 21.1182 108.555 20.1139 110.949 20.0384C111.956 19.9902 112.96 20.1785 113.88 20.5882C114.801 20.998 115.612 21.6178 116.25 22.3979V20.5462L121.55 20.5499ZM116.251 29.2601C116.288 28.3826 116.061 27.5142 115.6 26.7667C115.139 26.0191 114.465 25.4267 113.664 25.0658C112.863 24.7046 111.973 24.5915 111.108 24.7407C110.242 24.8899 109.441 25.2947 108.808 25.9032C108.174 26.5115 107.737 27.2955 107.553 28.1542C107.369 29.0129 107.446 29.9072 107.774 30.7218C108.103 31.5363 108.668 32.2341 109.396 32.7251C110.124 33.216 110.982 33.4778 111.861 33.4767C112.433 33.5167 113.007 33.4364 113.546 33.241C114.085 33.0455 114.577 32.7392 114.991 32.3421C115.405 31.9448 115.731 31.4654 115.948 30.9344C116.165 30.4037 116.268 29.8333 116.251 29.2601Z" fill="#394149"/>
<path d="M124.634 29.6248C124.626 27.7207 125.184 25.8569 126.236 24.27C127.289 22.683 128.788 21.4441 130.545 20.7102C132.302 19.9761 134.238 19.7801 136.106 20.147C137.975 20.5138 139.692 21.4268 141.042 22.7707C142.391 24.1143 143.311 25.8283 143.685 27.6954C144.059 29.5624 143.871 31.4986 143.144 33.2586C142.417 35.0184 141.184 36.5232 139.602 37.5818C138.019 38.6406 136.158 39.2058 134.253 39.2058C132.989 39.2203 131.735 38.9825 130.564 38.5065C129.393 38.0306 128.329 37.3261 127.433 36.4341C126.537 35.542 125.828 34.4804 125.348 33.3112C124.867 32.1421 124.624 30.8889 124.634 29.6248ZM138.428 29.6248C138.405 28.804 138.141 28.0081 137.668 27.3366C137.196 26.6652 136.536 26.1479 135.771 25.8496C135.006 25.5511 134.17 25.4847 133.368 25.6589C132.565 25.8331 131.832 26.2397 131.259 26.8284C130.687 27.4169 130.3 28.1612 130.149 28.9683C129.997 29.7751 130.086 30.6089 130.406 31.3653C130.725 32.1218 131.261 32.7671 131.945 33.2209C132.629 33.6746 133.432 33.9166 134.253 33.9166C134.816 33.9316 135.375 33.8299 135.896 33.618C136.417 33.406 136.889 33.0885 137.281 32.6853C137.673 32.282 137.978 31.8019 138.175 31.2751C138.372 30.7484 138.458 30.1865 138.428 29.6248Z" fill="#394149"/>
<path d="M146.412 15.6862C146.412 15.04 146.604 14.4084 146.963 13.8712C147.322 13.3339 147.832 12.9151 148.429 12.6679C149.026 12.4206 149.683 12.3559 150.316 12.482C150.95 12.608 151.532 12.9192 151.989 13.3761C152.446 13.833 152.757 14.4151 152.883 15.0488C153.009 15.6826 152.945 16.3394 152.697 16.9364C152.45 17.5334 152.031 18.0436 151.494 18.4026C150.957 18.7616 150.325 18.9532 149.679 18.9532C148.815 18.9446 147.989 18.5977 147.378 17.9868C146.768 17.376 146.421 16.55 146.412 15.6862ZM146.962 20.55H152.409V38.7H146.955L146.962 20.55Z" fill="#394149"/>
<path d="M175.919 29.6249C175.982 30.8245 175.807 32.0246 175.405 33.1563C175.002 34.288 174.38 35.329 173.574 36.2194C172.768 37.1097 171.793 37.832 170.707 38.3446C169.621 38.857 168.444 39.1498 167.244 39.2059C166.235 39.2609 165.226 39.0908 164.291 38.7078C163.356 38.3246 162.518 37.7383 161.837 36.9913V45.9581H156.392V20.5499H161.837V22.2549C162.518 21.5084 163.356 20.9225 164.291 20.5398C165.227 20.157 166.235 19.9871 167.244 20.0421C168.444 20.098 169.621 20.3906 170.708 20.9032C171.794 21.4158 172.769 22.1381 173.575 23.0288C174.381 23.9194 175.004 24.9607 175.406 26.0928C175.808 27.2247 175.983 28.4252 175.919 29.6249ZM170.474 29.6249C170.453 28.7755 170.182 27.9513 169.694 27.2552C169.207 26.5592 168.525 26.0224 167.734 25.7122C166.943 25.4018 166.078 25.3316 165.247 25.5106C164.416 25.6893 163.657 26.1091 163.064 26.7174C162.471 27.3259 162.07 28.0956 161.912 28.9306C161.754 29.7655 161.846 30.6283 162.176 31.4113C162.506 32.1943 163.06 32.8624 163.768 33.3323C164.476 33.802 165.307 34.0526 166.157 34.0524C166.74 34.0785 167.322 33.9807 167.865 33.7659C168.408 33.5512 168.9 33.2239 169.307 32.8059C169.715 32.3878 170.03 31.8884 170.231 31.3402C170.432 30.792 170.515 30.2074 170.474 29.6249Z" fill="#394149"/>
<path d="M192.722 33.2531C192.722 37.4276 189.094 39.2059 185.174 39.2059C183.59 39.3493 182 39.0145 180.609 38.2443C179.217 37.4743 178.089 36.3046 177.37 34.8866L182.087 32.2007C182.278 32.8561 182.688 33.4265 183.248 33.8161C183.808 34.2058 184.487 34.3916 185.167 34.3421C186.472 34.3421 187.127 33.9424 187.127 33.2182C187.127 31.2199 178.196 32.2741 178.196 25.9949C178.196 22.0367 181.537 20.0421 185.312 20.0421C186.731 19.9971 188.135 20.3337 189.38 21.0167C190.625 21.6998 191.664 22.7041 192.388 23.9251L187.743 26.4294C187.539 25.954 187.2 25.549 186.767 25.265C186.335 24.9811 185.829 24.8307 185.312 24.8326C184.367 24.8326 183.786 25.1992 183.786 25.8482C183.794 27.9181 192.722 26.5376 192.722 33.2531Z" fill="#394149"/>
<path d="M212.612 20.5498V38.6998H207.167V36.993C206.538 37.7461 205.74 38.3396 204.838 38.7246C203.936 39.1096 202.957 39.2751 201.978 39.2076C198.312 39.2076 195.195 36.5951 195.195 31.691V20.5498H200.64V30.8935C200.594 31.3258 200.644 31.7628 200.785 32.1741C200.924 32.5855 201.153 32.9613 201.454 33.2753C201.755 33.5894 202.119 33.8341 202.525 33.9927C202.928 34.1513 203.362 34.2199 203.797 34.1935C205.793 34.1935 207.172 33.033 207.172 30.4553V20.5553L212.612 20.5498Z" fill="#394149"/>
<path d="M243.833 27.555V38.698H238.388V28.0261C238.388 26.2111 237.517 25.0506 235.776 25.0506C233.961 25.0506 232.943 26.3211 232.943 28.4625V38.698H227.5V28.0261C227.5 26.2111 226.629 25.0506 224.886 25.0506C223.071 25.0506 222.055 26.3211 222.055 28.4625V38.698H216.61V20.548H222.055V22.2163C222.62 21.4762 223.36 20.8891 224.209 20.5091C225.06 20.1289 225.991 19.9677 226.919 20.0401C227.85 19.9945 228.778 20.1912 229.612 20.6108C230.444 21.0303 231.154 21.6588 231.673 22.4345C232.276 21.6229 233.075 20.9775 233.995 20.5588C234.916 20.14 235.928 19.9617 236.936 20.0401C241.103 20.042 243.833 23.0175 243.833 27.555Z" fill="#394149"/>
<path d="M248.439 20.438C250.67 20.438 252.479 18.6289 252.479 16.3974C252.479 14.1658 250.67 12.3567 248.439 12.3567C246.207 12.3567 244.398 14.1658 244.398 16.3974C244.398 18.6289 246.207 20.438 248.439 20.438Z" fill="#394149"/>
</svg>
